<?xml version="1.0" ?>
<!-- Uploaded to: SVG Repo, www.svgrepo.com, Generator: SVG Repo Mixer Tools -->
<svg width="800px" height="800px" viewBox="0 0 512 512" id="Layer_1" version="1.1" xml:space="preserve" xmlns="http://www.w3.org/2000/svg" xmlns:xlink="http://www.w3.org/1999/xlink">
<style type="text/css">
	.st0{fill:#69C9C9;}
	.st1{fill:#4D5152;}
</style>
<polygon class="st0" points="221,266 221,246 211,246 211,206.3 125,256 211,305.7 211,266 "/>
<polygon class="st0" points="457,266 457,246 447,246 447,206.3 361,256 447,305.7 447,266 "/>
<g>
<polygon class="st1" points="271,296.4 271,409.6 5,256 271,102.4 271,250.2 487,374.9 487,286 507,286 507,409.6 251,261.8    251,137.1 45,256 251,374.9 251,284.9  "/>
<rect class="st1" height="20" width="20" x="487" y="246"/>
<polygon class="st1" points="487,137.1 301,244.5 281,232.9 507,102.4 507,226 487,226  "/>
<polygon class="st1" points="467,266 467,340.3 321,256 467,171.7 467,246 447,246 447,206.3 361,256 447,305.7 447,266  "/>
<polygon class="st1" points="231,266 231,340.3 85,256 231,171.7 231,246 211,246 211,206.3 125,256 211,305.7 211,266  "/>
</g>
</svg>