<?xml version="1.0" ?>
<!-- Uploaded to: SVG Repo, www.svgrepo.com, Generator: SVG Repo Mixer Tools -->
<svg width="800px" height="800px" viewBox="0 0 256 256" xmlns="http://www.w3.org/2000/svg">
<g>
<path d="m214.18 101.88c-7.79-46.68-81.91-79.51-118.86-24.88a11.71 11.71 0 0 1 -12.72 4.77c-15.2-4.14-29.35 5.93-32.44 19.76a11.66 11.66 0 0 1 -7.94 8.73c-39.14 11.74-42.07 68.53 12.83 74.48 35.13 3.81 103.14 3.15 131 .88 70.71-5.77 61.79-62 34.49-75a11.75 11.75 0 0 1 -6.36-8.74z" fill="#191919"/>
<path d="m124.65 195.47c-25.56 0-52.23-.8-70.46-2.77-33.43-3.63-47.1-23.93-48.74-41.7-2-21.78 12.16-41.67 34.46-48.37a3.7 3.7 0 0 0 2.44-2.82 34.82 34.82 0 0 1  16-22.11 33.56 33.56 0 0 1  26.39-3.63 3.74 3.74 0 0 0  4-1.59c17.26-25.6 44.06-36.61 73.42-30.2 30.66 6.69 55.29 30.65 59.91 58.28a3.78 3.78 0 0 0 1.94 2.87c17.25 8.21 27.57 29.05 24 48.48-2.05 11.2-12.14 37.67-61.29 41.68-13.98 1.14-37.51 1.88-62.07 1.88zm-49-106.63a17.59 17.59 0 0 0 -9.12 2.55 18.75 18.75 0 0 0 -8.53 11.89 19.71 19.71 0 0 1 -13.45 14.65c-17.41 5.23-24.19 20-23.13 31.58 1.37 14.88 14.28 25.08 34.53 27.28 34.29 3.72 102.21 3.08 129.52.86 26.84-2.19 43.92-12.62 46.85-28.62 2.26-12.35-4.39-26-15.15-31.15a19.76 19.76 0 0 1 -10.85-14.68c-3.51-21-23.5-40-47.54-45.28-22.63-4.94-43.34 3.64-56.8 23.53a19.69 19.69 0 0 1 -21.48 8.04 18.26 18.26 0 0 0 -4.81-.65z" fill="#191919"/>
</g>
<g>
<path d="m214.18 101.88c-7.79-46.68-81.91-79.51-118.86-24.88a11.71 11.71 0 0 1 -12.72 4.77c-15.2-4.14-29.35 5.93-32.44 19.76a11.66 11.66 0 0 1 -7.94 8.73c-39.14 11.74-42.07 68.53 12.83 74.48 35.13 3.81 103.14 3.15 131 .88 70.71-5.77 61.79-62 34.49-75a11.75 11.75 0 0 1 -6.36-8.74z" fill="#ffffff"/>
</g>
<g>
<path d="m115.3 162.55c2.14 3.11 33.3 2.88 35 .32s-.53-39.25 1-41.28 11.92-.31 13.34-2.64c1.81-3-28-37.52-31.59-37.95s-34.72 35.54-33.33 38c2.16 3.77 12.59 1.23 14.3 3.36s-1.02 36.78 1.28 40.19z" fill="#e83a2a"/>
</g>
</svg>