<?xml version="1.0" encoding="iso-8859-1"?>
<!-- Uploaded to: SVG Repo, www.svgrepo.com, Generator: SVG Repo Mixer Tools -->
<svg version="1.1" id="Layer_1" xmlns="http://www.w3.org/2000/svg" xmlns:xlink="http://www.w3.org/1999/xlink" 
	 viewBox="0 0 512 512" xml:space="preserve">
<path style="fill:#25B6D2;" d="M401.392,235.528H432c44,0,80,35.936,80,79.872v15.968c0,43.92-36,79.872-80,79.872H80
	c-44,0-80-35.936-80-79.872V315.4c0-40.96,31.424-74.592,71.328-78.992C70.544,230.888,70,225.288,70,219.56
	c0-65.616,53.28-118.8,118.992-118.8c50.464,0,93.488,31.424,110.8,75.68c0,0,26.672-12.24,60.016-0.448
	C401.264,190.664,401.392,235.528,401.392,235.528z"/>
<g>
	<path style="fill:#FFFFFF;" d="M201.24,372.4c-51.168,0-92.8-41.624-92.8-92.8s41.624-92.808,92.8-92.808
		s92.808,41.632,92.808,92.808S252.416,372.4,201.24,372.4z M201.24,194.8c-46.76,0-84.8,38.048-84.8,84.808s38.04,84.8,84.8,84.8
		s84.808-38.04,84.808-84.8S248,194.8,201.24,194.8z"/>
	<rect x="197.24" y="188.128" style="fill:#FFFFFF;" width="8" height="178.272"/>
	<rect x="112.32" y="275.6" style="fill:#FFFFFF;" width="179.648" height="8"/>
	<path style="fill:#FFFFFF;" d="M201.144,257.64c-46.488,0-65.008-38.616-65.776-40.264l7.248-3.384
		c0.68,1.456,17.24,35.648,58.52,35.648c41.248,0,57.392-33.808,58.056-35.24l7.264,3.336
		C265.72,219.368,247.632,257.64,201.144,257.64z"/>
	<path style="fill:#FFFFFF;" d="M142.616,345.2l-7.248-3.376c0.768-1.648,19.288-40.264,65.776-40.264
		c46.496,0,64.576,38.272,65.32,39.904L259.2,344.8c-0.664-1.44-16.808-35.24-58.056-35.24
		C159.704,309.56,142.784,344.848,142.616,345.2z"/>
	<path style="fill:#FFFFFF;" d="M196.616,372c-1.76-1.608-43.096-40.056-43.096-92.4c0-52.424,42.28-89.432,44.08-90.976
		l5.216,6.064c-0.416,0.352-41.296,36.224-41.296,84.912c0,48.856,40.096,86.128,40.496,86.496L196.616,372z"/>
	<path style="fill:#FFFFFF;" d="M205.872,372l-5.408-5.896c0.408-0.376,40.496-37.736,40.496-86.496
		c0-48.792-40.88-84.552-41.296-84.912l5.216-6.064c1.8,1.544,44.08,38.552,44.08,90.976
		C248.968,331.944,207.632,370.392,205.872,372z"/>
</g>
</svg>