<!DOCTYPE svg PUBLIC "-//W3C//DTD SVG 1.1//EN" "http://www.w3.org/Graphics/SVG/1.1/DTD/svg11.dtd">
<!-- Uploaded to: SVG Repo, www.svgrepo.com, Transformed by: SVG Repo Mixer Tools -->
<svg fill="#52ff86" height="256px" width="256px" version="1.1" id="Capa_1" xmlns="http://www.w3.org/2000/svg" xmlns:xlink="http://www.w3.org/1999/xlink" viewBox="-171.5 -171.5 833.01 833.01" xml:space="preserve" stroke="#52ff86" transform="matrix(1, 0, 0, 1, 0, 0)rotate(0)" stroke-width="14.70027">
<g id="SVGRepo_bgCarrier" stroke-width="0" transform="translate(0,0), scale(1)">
<path transform="translate(-171.5, -171.5), scale(52.063125)" fill="#0e3e25" d="M9.166.33a2.25 2.25 0 00-2.332 0l-5.25 3.182A2.25 2.25 0 00.5 5.436v5.128a2.25 2.25 0 001.084 1.924l5.25 3.182a2.25 2.25 0 002.332 0l5.25-3.182a2.25 2.25 0 001.084-1.924V5.436a2.25 2.25 0 00-1.084-1.924L9.166.33z" strokewidth="0"/>
</g>
<g id="SVGRepo_tracerCarrier" stroke-linecap="round" stroke-linejoin="round" stroke="#CCCCCC" stroke-width="1.9600360000000001"/>
<g id="SVGRepo_iconCarrier"> <g> <g> <path d="M253.354,342.609c4.3,2,9.4,1.4,13-1.6l193.2-160c2.8-2.3,4.4-5.8,4.4-9.4c0-3.7-1.6-7.1-4.5-9.4l-193.1-159.4 c-3.7-3-8.7-3.7-13-1.6c-4.3,2-7,6.3-7,11.1v83.7c-221.5,8-220.6,176-220.2,257.4v9.7c0,5.6,3.7,10.4,9.1,11.8 c1,0.3,2.1,0.4,3.1,0.4c4.3,0,8.4-2.3,10.7-6.2c65.4-115.2,119.2-120.8,197.3-121.1v83.5 C246.354,336.209,249.055,340.509,253.354,342.609z M50.855,319.909c1.1-35.5,5.8-77.8,25.2-113.6c30.8-57,90.5-85.2,182.6-86.1 c6.7-0.1,12.1-5.5,12.1-12.2v-69.8l161.7,133.4l-161.6,133.8v-69.7c0-3.2-1.3-6.4-3.6-8.7s-5.4-3.6-8.7-3.6 C172.855,223.509,113.755,228.609,50.855,319.909z"/> <path d="M461.555,477.809v-226c0-6.8-5.5-12.3-12.3-12.3s-12.3,5.5-12.3,12.3v213.7h-386.3v-41.6c0-6.8-5.5-12.3-12.3-12.3 s-12.3,5.5-12.3,12.3v53.8c0,6.8,5.5,12.3,12.3,12.3h410.9C456.055,490.009,461.555,484.509,461.555,477.809z"/> </g> </g> </g>
</svg>