<!DOCTYPE svg PUBLIC "-//W3C//DTD SVG 1.1//EN" "http://www.w3.org/Graphics/SVG/1.1/DTD/svg11.dtd">
<!-- Uploaded to: SVG Repo, www.svgrepo.com, Transformed by: SVG Repo Mixer Tools -->
<svg height="800px" width="800px" version="1.1" id="Layer_1" xmlns="http://www.w3.org/2000/svg" xmlns:xlink="http://www.w3.org/1999/xlink" viewBox="0 0 410.8 410.8" xml:space="preserve" fill="#000000">
<g id="SVGRepo_bgCarrier" stroke-width="0"/>
<g id="SVGRepo_tracerCarrier" stroke-linecap="round" stroke-linejoin="round"/>
<g id="SVGRepo_iconCarrier"> <path style="fill:#9effa0;" d="M333.4,146.8c17.6,0,32,14.4,32,32v192c0,17.6-14.4,32-32,32h-256c-17.6,0-32-14.4-32-32v-192 c0-17.6,14.4-32,32-32H333.4z"/> <path style="fill:#00AEEF;" d="M333.4,410.8h-256c-22,0-40-18-40-40v-192c0-22,18-40,40-40h256c22,0,40,18,40,40v192 C373.4,392.8,355.4,410.8,333.4,410.8z M77.4,154.8c-13.2,0-24,10.8-24,24v192c0,13.2,10.8,24,24,24h256c13.2,0,24-10.8,24-24v-192 c0-13.2-10.8-24-24-24H77.4z"/> <g> <path style="fill:#c70f71;" d="M205.4,226.8c-4.4,0-8-3.6-8-8v-196c0-4.4,3.6-8,8-8s8,3.6,8,8v196 C213.4,223.2,209.8,226.8,205.4,226.8z"/> <path style="fill:#c70f71;" d="M205.4,274.8c-4.4,0-8-3.6-8-8v-12c0-4.4,3.6-8,8-8s8,3.6,8,8v12 C213.4,271.2,209.8,274.8,205.4,274.8z"/> <path style="fill:#c70f71;" d="M276.2,86.8c-2,0-4-0.8-5.6-2.4l-65.2-65.2l-65.2,65.2c-3.2,3.2-8,3.2-11.2,0s-3.2-8,0-11.2 l70.8-70.8c3.2-3.2,8-3.2,11.2,0l70.8,70.8c3.2,3.2,3.2,8,0,11.2C280.2,86,278.2,86.8,276.2,86.8z"/> </g> </g>
</svg>