<?xml version="1.0" encoding="utf-8"?>
<!-- Generator: Adobe Illustrator 23.0.1, SVG Export Plug-In . SVG Version: 6.00 Build 0)  -->
<svg version="1.1" id="Capa_1" xmlns="http://www.w3.org/2000/svg" xmlns:xlink="http://www.w3.org/1999/xlink" x="0px" y="0px"
	 viewBox="0 0 194.12 194.12" style="enable-background:new 0 0 194.12 194.12;" xml:space="preserve">
<style type="text/css">
	.st0{opacity:0.8;fill:#E9D2DD;stroke:#E9D2DD;stroke-width:3.2161;stroke-miterlimit:10;}
	.st1{fill:#A2C495;}
	.st2{fill:#FFF2BA;}
</style>
<g>
	<circle class="st0" cx="97.01" cy="98" r="94.01"/>
	<g>
		<path class="st1" d="M100.42,74.34c0.14-0.57,0.35-1.15,0.52-1.75c0.82-2.89,0.88-5.85,0.45-8.81c-0.48-3.23-1.8-6.12-2.93-9.15
			c-0.28-0.74-0.69-2.31-1.25-3.57c-1.62,3.79-2.64,7.5-1.99,11.79C95.6,65.36,97.72,71.82,100.42,74.34z"/>
		<path class="st1" d="M111.22,82.85c-1.59,0.71-3.19,1.48-4.67,2.42c-0.5,0.31-7.56,6.63-6.86,6.97c0.65,0.31,0.33,0.62-0.21,0.81
			c1.44,0.45,2.46,0.69,4.23,0.31c2.5-0.55,4.08-1.58,5.65-3.55c2-2.5,3.66-5.52,5.15-8.39C113.34,81.76,112.06,82.48,111.22,82.85z
			"/>
		<path class="st1" d="M64.19,140.79c-1.06,0.86-6.1,6.2-5.88,8.53c1.57-0.17,3.37-0.68,4.81-0.88c2.63-0.37,5.53-1.01,7.88-2.31
			c1.86-1.03,3.71-2.73,5.18-4.24c1.33-1.37,2-2.77,2.73-4.31C73.9,135.89,68.23,137.51,64.19,140.79z"/>
		<path class="st1" d="M84.52,119.04c-0.22-1.47-2.41-9.11-4.67-10.11c-0.7,1.6-1.21,3.6-1.8,5.09c-1.09,2.73-2.07,5.85-2.15,8.8
			c-0.06,2.32,0.5,4.99,1.1,7.21c0.54,1.99,1.47,3.37,2.5,4.88C83.77,130.95,85.36,124.64,84.52,119.04z"/>
		<path class="st1" d="M125.82,100.16c-4.13,0.68-10.22,2.6-12.17,6.96c0,0.01-0.01,0.02-0.02,0.03c1.63,0.35,3.96,1.97,5.12,2.26
			c2.42,0.6,5.35,0.59,7.73-0.18c2.58-0.84,4.58-3,6.41-4.93c1.17-1.24,3.23-3.1,4.03-4.89C133.23,99.74,129.51,99.55,125.82,100.16
			z"/>
		<path class="st1" d="M80.82,135.67c-0.35-0.02-1.01,0.09-1.2,0.46c-0.03,0.05-0.05,0.1-0.07,0.15c-0.44-0.13-0.88-0.24-1.33-0.33
			c-0.01,0.06-0.02,0.13-0.03,0.19c-0.13,0.82,1.76,0.61,2.12,0.44c0.45-0.21,0.85-0.49,1.22-0.81c-0.14-0.04-0.3-0.07-0.48-0.08
			C80.97,135.68,80.89,135.68,80.82,135.67z"/>
		<path class="st2" d="M66.53,96.82c-0.41,0.41-2.66,0.46-2.27-0.48c1.13-2.78,2.24-5.3,1.89-8.37c0.01-2.62-1.69-3.25-5.1-1.9
			c-0.22,0.69-0.45,1.39-0.67,2.08c-0.17,0.79-0.33,1.67-0.26,2.5c0.63,0.75,1.12,1.6,1.36,2.54c0.23,0.88-1.99,0.54-2.32,0.31
			c-0.83-0.58-1.28-1.43-1.47-2.39c-0.36-0.27-0.79-0.53-1.31-0.84c-1.22-1.42-2.34-1.28-3.34,0.43c-1.32,0.3-1.89,0.95-1.72,1.95
			c-0.38,2.11,1.71,3.68,3.76,4.45c0.84-0.01,1.71,0.18,2.59,0.66c1.17,0.64-0.71,1.09-1.21,1.04c-0.72-0.07-1.48-0.21-2.23-0.4
			c-2.26,0.69-3.09,5.74-2.58,7.43c0.15,0.96,0.6,1.77,1.36,2.44c1.52-0.32,3.04-0.64,4.56-0.96c0.56-0.36,1.01-1.05,1.37-1.8
			c-0.28-1.7-0.2-3.54,1.55-4.03c0.88-0.24,2.82,0.65,1.25,1.08c-0.08,0.02-0.15,0.06-0.21,0.12c0.48,0.08,0.86,0.28,0.78,0.58
			c-0.02,0.06-0.03,0.12-0.05,0.17c0,0,0,0.01,0,0.01c-0.23,0.69-0.52,1.36-0.85,2c0.27,1.52,0.78,3.13,0.97,3.45
			c2.14,3.67,6.55,2.84,6.66-0.87c0.01-0.31-0.12-1.53-0.33-2.42c-0.78-0.16-1.54-0.55-2.22-1.23c-0.39-0.39,0.04-0.75,0.45-0.85
			c1.47-0.36,2.59-0.01,3.36,0.72c1.37-0.57,2.21-3.5,1.95-4.53C72.03,98.82,68.26,95.11,66.53,96.82z"/>
		<path class="st2" d="M139.25,66.97c-1.45,0.87-3.64,1.86-4.84,0.22c-0.06-0.11-0.06-0.22,0-0.33c0.72-1.51,2.49-1.95,4.38-1.67
			c1.09-1.42,1.62-3.47,1.36-4.85c-0.4-2.16-1.7-5.06-5-3.86c-1.99,0.72-2.65,2.88-3.01,4.69c-0.17,0.85-2.37,0.89-2.49,0
			c-0.33-2.47-2.64-5.41-5.23-2.88c-2,1.96-1.18,4.66,1.04,5.95c1.14,0.66-0.68,1.1-1.21,1.04c-4.24-0.52-5.53,5.34-3.73,8.31
			c3.2,5.27,5.8-0.51,8.6-0.97c0.06-0.16,0.11-0.31,0.18-0.47c0.22-0.49,1.11-0.47,1.53-0.43c0.08,0.01,0.15,0.01,0.23,0.02
			c0.95,0.08,0.98,0.49,0.61,0.81c-0.73,1.73-0.29,3.62,0.12,5.36c0.15,1.43,0.74,2.64,1.75,3.64c2.79,0.7,4.7-0.06,5.72-2.29
			c0.5-0.94,0.71-1.92,0.62-2.95c-0.48-0.29-0.85-0.57-1.14-0.82c-0.49,0-0.97-0.03-1.42-0.13c-1.36-0.31-2.78-1.23-1.12-2.3
			c0.76-0.49,2.24-0.2,3.5,0.32c0.43-0.09,0.94-0.16,1.53-0.22c0.94-0.92,1.33-1.98,1.17-3.18
			C141.68,68.14,140.62,67.15,139.25,66.97z"/>
		<path class="st2" d="M116.44,36.89c0.16-0.48,1.16-0.48,1.53-0.43c0.08,0.01,0.16,0.02,0.24,0.03c0.96,0.12,0.98,0.55,0.61,0.86
			c-0.02,0.08-0.04,0.16-0.05,0.25c0.14,0.12,0.19,0.28,0.1,0.46c-0.06,0.13-0.14,0.25-0.22,0.38c-0.12,1.94,0.58,4.4,1.59,5.63
			c1.98,2.41,6.53,1.1,7.68-1.66c0.6-1.44,1.31-5.75-2.37-5.13c-0.82,0.14-2.41-0.74-0.96-1.14c3.11-0.85,6.29-1.23,7.57-4.7
			c1.84-4.99-4.18-6.21-6.27-2.45c-0.38,0.68-2.7,0.63-2.4-0.33c0.61-1.96,1.26-3.94,0.44-5.94c-1.07-2.64-1.91-2.8-4.7-2.5
			c-2.94,0.32-3.37,0.48-3.54,3.29c-0.06,0.97,0.14,1.83,0.02,2.81c-0.11,0.95-2.03,0.69-2.45,0.16c-2.48-3.13-8.89-1.11-6.88,2.94
			c0.08,0.15,1.28,1.49,2.45,2.17c1.04-0.29,2.18-0.31,3.16-0.16c0.43,0.07,1.24,0.39,0.74,0.92c-0.71,0.75-1.89,0.83-3.05,0.68
			c-3.05,2.51,1.17,14.99,6.45,5.34C116.18,37.87,116.28,37.38,116.44,36.89z"/>
		<g>
			<path d="M116.18,38.5c-5.73,10.89-10.06,22.39-13.86,34.08c-3.7,11.39-6.61,22.78-7.86,34.71c-1.26,12.08-0.73,24.08-0.49,36.2
				c0.12,6.1,0.16,12.2,0.21,18.3c0.02,3.11,0.05,6.14-0.29,9.24c-0.26,2.39-0.77,4.5,0.13,6.79c0.29,0.74,2.03,0.55,2.4,0
				c0.11-0.16,0.21-0.32,0.32-0.47c0.48-0.71-1.92-1.04-2.4-0.33c-0.11,0.16-0.21,0.32-0.32,0.47c0.8,0,1.6,0,2.4,0
				c-1.14-2.93,0.09-6.4,0.26-9.41c0.14-2.61,0.01-5.26-0.01-7.87c-0.05-5.83-0.09-11.67-0.21-17.5c-0.25-11.85-0.73-23.58,0.5-35.4
				c1.26-12.08,4.25-23.62,8.02-35.15c3.74-11.43,8.01-22.66,13.61-33.32C119.01,38.02,116.58,37.75,116.18,38.5L116.18,38.5z"/>
		</g>
		<g>
			<path d="M96,122.32c8.04-5.46,14.82-12.18,20.15-20.31c3.02-4.6,6.32-9.06,8.96-13.9c2.58-4.75,4.31-9.84,5.74-15.03
				c0.26-0.96-2.19-1.1-2.4-0.33c-2.86,10.44-8,18.7-13.88,27.65c-5.59,8.52-12.27,15.55-20.72,21.29
				C92.99,122.27,95.35,122.75,96,122.32L96,122.32z"/>
		</g>
		<g>
			<path d="M96.94,145.04c-5.59-1.41-9.86-3.4-14.19-7.26c-3.73-3.32-6.81-7.16-9.91-11.05c-2.54-3.2-5.34-6.2-7.18-9.88
				c-1.96-3.94-4.36-8.06-3.38-12.58c0.16-0.75-2.29-0.91-2.49,0c-0.99,4.55,1.29,8.31,3.19,12.31c2.24,4.73,5.95,8.61,9.17,12.68
				c3.02,3.83,6.31,7.47,10.1,10.56c4.22,3.44,8.21,4.98,13.44,6.29C96.55,146.33,98.5,145.44,96.94,145.04L96.94,145.04z"/>
		</g>
		<g>
			<path d="M116.59,38.03c-6.16,12.28-11.07-6.01-5.14-5.11c-0.25-0.31-0.5-0.61-0.74-0.92c-1.11,1.18-4.08-2.05-4.2-2.29
				c-2-4.05,4.41-6.07,6.88-2.94c0.42,0.53,2.33,0.78,2.45-0.16c0.11-0.97-0.08-1.84-0.02-2.81c0.17-2.81,0.6-2.97,3.54-3.29
				c2.79-0.3,3.63-0.14,4.7,2.5c0.81,2,0.17,3.98-0.44,5.94c-0.3,0.96,2.02,1.02,2.4,0.33c2.09-3.76,8.11-2.53,6.27,2.45
				c-1.28,3.47-4.45,3.85-7.57,4.7c-1.45,0.4,0.14,1.28,0.96,1.14c3.68-0.62,2.97,3.69,2.37,5.13c-1.15,2.76-5.71,4.07-7.68,1.66
				c-1.23-1.5-2.03-4.85-1.39-6.84c-0.51,0.14-1.02,0.29-1.53,0.43c0.08,0.01,0.16,0.02,0.24,0.03c1.16,0.15,2.33-0.98,0.66-1.2
				c-0.08-0.01-0.16-0.02-0.24-0.03c-0.37-0.05-1.38-0.05-1.53,0.43c-2.09,6.45,4.28,12.12,10.44,9.44
				c2.68-1.17,4.89-4.91,3.83-7.87c-0.85-2.38-3.63-2.75-5.83-2.39c0.32,0.38,0.64,0.76,0.96,1.14c2.72-0.74,5.45-0.96,7.46-3.18
				c1.73-1.92,2.51-4.95,0.77-7.11c-2.75-3.43-8.67-1.7-10.58,1.73c0.8,0.11,1.6,0.22,2.4,0.33c1.03-3.29,1.5-5.86-0.87-8.73
				c-1.2-1.46-2.8-2.58-4.7-2.81c-1.81-0.21-3.84,0.27-5.21,1.51c-2.22,2.01-1.59,4.71-1.9,7.36c0.82-0.05,1.63-0.11,2.45-0.16
				c-1.92-2.43-3.52-3.81-6.87-3.48c-2.48,0.24-5.16,1.41-5.4,4.21c-0.23,2.74,1.49,4.78,3.92,5.59c1.46,0.48,4.17,1.18,5.4-0.12
				c0.5-0.53-0.31-0.85-0.74-0.92c-1.81-0.28-4.23-0.03-5.39,1.62c-1.44,2.05-0.73,6.61,0.97,8.35c3.39,3.48,9.54,0.18,11.3-3.32
				C119.41,37.54,116.97,37.28,116.59,38.03L116.59,38.03z"/>
		</g>
		<g>
			<path d="M129.44,72.91c-2.87,0.21-5.52,6.39-8.79,0.99c-1.8-2.97-0.51-8.84,3.73-8.31c0.53,0.07,2.35-0.38,1.21-1.04
				c-2.22-1.29-3.03-3.99-1.04-5.95c2.59-2.54,4.9,0.4,5.23,2.88c0.12,0.89,2.32,0.86,2.49,0c0.37-1.81,1.02-3.97,3.01-4.69
				c3.3-1.2,4.6,1.7,5,3.86c0.43,2.31-1.32,6.5-4.25,6.46c0.4,0.15,0.8,0.31,1.2,0.46c2.47-0.9,4.24,0.01,5.3,2.73
				c0.16,1.19-0.23,2.25-1.17,3.18c-3.76,0.34-4.21,1.39-1.35,3.15c0.09,1.03-0.11,2.02-0.62,2.95c-1.02,2.22-2.93,2.98-5.72,2.29
				c-1.02-1-1.6-2.22-1.75-3.64c-0.42-1.76-0.87-3.68-0.1-5.42c-0.51,0.14-1.02,0.29-1.53,0.43c0.08,0.01,0.15,0.01,0.23,0.02
				c1.15,0.1,2.34-1.05,0.66-1.2c-0.08-0.01-0.15-0.01-0.23-0.02c-0.42-0.04-1.32-0.06-1.53,0.43c-2.65,6.03,3.48,14.77,9.95,10.19
				c2.12-1.5,4.51-5.33,2.41-7.77c-0.85-0.98-4.17-2.34-5.45-1.52c-1.66,1.07-0.24,1.99,1.12,2.3c2.67,0.6,6.25-0.59,7.31-3.3
				c2.1-5.37-8.21-9.42-10.22-5.2c-0.06,0.11-0.06,0.22,0,0.33c1.24,1.7,3.57,0.56,5.01-0.33c3.07-1.89,4.08-4.76,2.76-8.18
				c-1.05-2.73-3.36-4.33-6.32-3.92c-3.65,0.51-5.53,3.02-6.21,6.4c0.83,0,1.66,0,2.49,0c-0.51-3.79-3.23-6.63-7.13-5.38
				c-4.62,1.49-5.49,6.89-1.31,9.33c0.4-0.35,0.81-0.69,1.21-1.04c-5.45-0.67-8.97,3.43-7.16,8.91c0.74,2.26,2.46,3.57,4.8,3.8
				c1.29,0.12,2.48-0.09,3.68-0.54c1-0.38,1.99-0.96,2.87-1.56c0.27-0.18,0.61-0.87,0.87-0.89C131.77,74,130.59,72.83,129.44,72.91
				L129.44,72.91z"/>
		</g>
		<g>
			<path d="M62.42,103.74c0.02-0.06,0.03-0.12,0.05-0.17c0.19-0.71-2.21-0.88-2.44-0.17c-0.44,1.29-1.13,3.45-2.31,4.22
				c-1.52,0.32-3.04,0.64-4.56,0.96c-0.76-0.67-1.21-1.48-1.36-2.44c-0.62-2.06,0.74-9.11,4.27-7.18c0.4-0.35,0.81-0.69,1.21-1.04
				c-2.34-0.23-6.31-2.1-5.81-4.95c-0.18-0.99,0.4-1.64,1.72-1.95c1.01-1.71,2.12-1.85,3.34-0.43c1.43,0.86,2.17,1.26,2.6,2.91
				c0.77-0.1,1.55-0.21,2.32-0.31c-1.58-1.1-1.29-3.11-0.93-4.72c0.22-0.69,0.45-1.39,0.67-2.08c3.4-1.36,5.1-0.72,5.1,1.9
				c0.35,3.07-0.76,5.59-1.89,8.37c-0.38,0.94,1.86,0.89,2.27,0.48c1.73-1.71,5.5,2,5.72,2.87c0.36,1.39-1.32,6.33-3.6,4.03
				c-0.15,0.28-0.3,0.57-0.45,0.85c0.5-0.12,0.87,2.92,0.85,3.43c-0.11,3.71-4.52,4.54-6.66,0.87c-0.36-0.61-1.93-5.97-0.64-6.33
				c1.56-0.43-0.38-1.32-1.26-1.08c-2.47,0.68-1.63,4.04-1.12,5.93c1.05,3.89,4.08,5.98,8.1,5.44c5.59-0.75,5.43-10.8-0.53-9.34
				c-0.4,0.1-0.83,0.46-0.45,0.85c3.52,3.53,9.18-0.63,8.13-5.09c-0.8-3.38-7.69-5.61-10.25-3.07c0.76,0.16,1.52,0.32,2.27,0.48
				c1.61-3.97,4.5-12.84-2.56-13.29c-2.36-0.15-4.65,0.72-5.65,2.9c-1,2.17-1.5,5.66,0.72,7.21c0.33,0.23,2.55,0.57,2.32-0.31
				c-1.11-4.28-7.05-6.98-10.87-4.21c-2.09,1.52-2.21,4.32-0.94,6.44c1.35,2.27,4.33,3.14,6.8,3.38c0.5,0.05,2.39-0.4,1.21-1.04
				c-5.45-2.97-10.58,4.38-8.18,9.31c1.08,2.22,3.19,3.29,5.6,3.07C59,110.12,61.29,107.08,62.42,103.74
				c-0.81-0.07-1.63-0.12-2.44-0.18c-0.02,0.06-0.03,0.12-0.05,0.17C59.73,104.45,62.17,104.64,62.42,103.74L62.42,103.74z"/>
		</g>
		<g>
			<path d="M79.01,133.27c-4.89-8.69,1.03-17.97,1.88-26.77c-0.82,0.05-1.63,0.11-2.45,0.16c3.29,4.82,4.87,9.78,4.54,15.6
				c-0.2,3.53-0.73,11.72-4.44,13.44c0.71,0.15,1.42,0.3,2.12,0.44c0.03-0.18,0.06-0.35,0.08-0.53c0.13-0.79-2.35-0.91-2.49,0
				c-0.03,0.18-0.06,0.35-0.08,0.53c-0.13,0.82,1.76,0.61,2.12,0.44c3.92-1.82,4.72-8.71,5.12-12.44c0.7-6.61-0.83-12.33-4.58-17.81
				c-0.39-0.57-2.36-0.75-2.45,0.16c-0.87,8.95-6.78,18.26-1.79,27.1C77.02,134.32,79.45,134.06,79.01,133.27L79.01,133.27z"/>
		</g>
		<g>
			<path d="M99.94,75.71c0.04,0.09,0.08,0.18,0.12,0.27c0.61-0.23,1.22-0.47,1.83-0.7c-3.37-1.05-6.22-9.48-6.66-12.43
				c-0.75-5.03,0.77-9.28,2.88-13.78c-0.69,0.09-1.39,0.18-2.08,0.27c1.18,0.71,1.99,4.08,2.44,5.29c1.13,3.02,2.45,5.91,2.93,9.15
				c0.44,2.97,0.37,5.92-0.45,8.81c-0.4,1.41-1.05,2.69-0.42,4.13c0.33,0.75,2.78,0.54,2.4-0.33c-0.79-1.79,1.13-6.06,1.21-8.06
				c0.11-2.72-0.26-5.45-1.02-8.06c-0.8-2.76-2.03-5.49-3.11-8.17c-0.54-1.35-0.94-2.87-2.23-3.65c-0.47-0.28-1.79-0.34-2.08,0.27
				c-2.47,5.26-4.16,10.38-2.54,16.23c0.99,3.57,3.56,10.16,7.47,11.38c0.41,0.13,2.18,0.12,1.83-0.7
				c-0.04-0.09-0.08-0.18-0.12-0.27C102.02,74.63,99.56,74.83,99.94,75.71L99.94,75.71z"/>
		</g>
		<g>
			<path d="M99.7,92.24c-0.71-0.34,6.36-6.65,6.85-6.97c1.47-0.93,3.07-1.71,4.67-2.42c1.19-0.53,3.26-1.76,4.68-1.64
				c-0.29-0.26-0.58-0.51-0.87-0.77c-1.62,3.15-3.44,6.58-5.66,9.36c-1.57,1.96-3.15,3-5.65,3.55c-2.08,0.45-3.13,0.04-5.02-0.55
				c-0.87-0.27-2.81,0.59-1.26,1.07c3.73,1.16,7.25,1.49,10.87-0.51c4.33-2.4,6.98-8.42,9.12-12.58c0.24-0.47-0.56-0.74-0.87-0.77
				c-3.79-0.34-8.3,2.29-11.41,4.12c-2.56,1.5-7.62,5.1-7.78,8.44c-0.01,0.2,0.21,0.37,0.36,0.44c0.07,0.03,0.14,0.07,0.21,0.1
				C98.64,93.45,100.94,92.83,99.7,92.24L99.7,92.24z"/>
		</g>
		<g>
			<path d="M113.65,107.12c1.95-4.36,8.04-6.28,12.17-6.96c4.31-0.71,8.66-0.33,12.95-0.97c-0.53-0.2-1.05-0.4-1.57-0.6
				c-0.41,2.02-2.96,4.28-4.31,5.71c-1.83,1.93-3.83,4.09-6.41,4.93c-2.37,0.77-5.3,0.78-7.73,0.18c-1.47-0.36-4.8-2.86-6.23-2.23
				c1.25-0.56-1.05-1.2-1.76-0.88c-0.1,0.04-0.2,0.09-0.3,0.13c-0.49,0.22-0.41,0.64,0,0.88c4.98,2.96,10.5,4.74,16.24,3.24
				c3.17-0.83,4.92-2.23,7.25-4.54c1.97-1.96,5.14-4.58,5.72-7.42c0.12-0.61-1.32-0.64-1.57-0.6c-5.92,0.89-11.78,0.22-17.66,1.9
				c-3.22,0.92-7.79,3.73-9.2,6.89C110.86,107.65,113.31,107.88,113.65,107.12L113.65,107.12z"/>
		</g>
		<g>
			<path d="M80.58,136.62c-5.29-1.97-11.43-1.11-16.27,1.89c-2.65,1.64-4.48,3.56-6.14,6.15c-0.65,1.02-3.09,4.21-2.11,5.49
				c0.6,0.79,1.83,0.39,2.63,0.3c3.61-0.45,7.44-1.02,10.91-2.17c2.78-0.92,4.81-2.29,6.98-4.19c2.78-2.43,3.79-4.42,5.42-7.63
				c-0.4,0.15-0.8,0.3-1.2,0.46c0.08,0,0.15,0.01,0.23,0.01c1.5,0.08,1.49-1.16,0-1.24c-0.08,0-0.15-0.01-0.23-0.01
				c-0.35-0.02-1.01,0.09-1.2,0.46c-1.08,2.13-1.7,3.97-3.43,5.75c-1.48,1.52-3.33,3.22-5.18,4.24c-2.35,1.3-5.25,1.94-7.88,2.31
				c-1.77,0.25-4.09,0.98-5.85,0.94c0.4,0.15,0.8,0.31,1.2,0.46c-1.25-1.92,4.58-8.11,5.73-9.04c4.15-3.37,10.02-5,15.13-3.09
				C80.19,138.02,82.1,137.19,80.58,136.62L80.58,136.62z"/>
		</g>
	</g>
</g>
</svg>
