<svg xmlns="http://www.w3.org/2000/svg" xmlns:xlink="http://www.w3.org/1999/xlink" version="1.1" viewBox="0 0 256 256" xml:space="preserve" preserveAspectRatio="xMidYMid meet" style="width: 200px; height: 200px; transform-origin: 50% 50%; transform: scaleX(1) scaleY(1) rotate(0deg);"><circle id="svg-editor-bg-shape" data-editor="bg-shape" cx="128" cy="128" r="122.88" fill="#FFFFFF" stroke="none" style="pointer-events: none;"/>

<defs>
</defs>
<g style="stroke:#27B5A1;stroke-width: 0;stroke-dasharray: none;stroke-linecap: butt;stroke-linejoin: miter;stroke-miterlimit: 10;fill:none;fill-rule: nonzero;opacity: 1" transform="translate(1.4065934065934016 1.4065934065934016) scale(2.81 2.81)" fill="none" stroke="#27B5A1">
	<path d="M 35.72 46.475 V 30.302 c 0 -0.542 0.215 -1.047 0.588 -1.411 c 0.124 -0.125 0.264 -0.237 0.423 -0.329 l 12.265 -7.081 c -2.03 -1.674 -4.56 -2.58 -7.193 -2.58 l 0.02 -0.02 c -4.897 0.008 -9.047 3.138 -10.595 7.497 l 0.025 0.006 c -0.431 1.209 -0.657 2.486 -0.655 3.779 l 0.002 13.361 L 35.72 46.475 z" style="stroke:none;stroke-width: 1;stroke-dasharray: none;stroke-linecap: butt;stroke-linejoin: miter;stroke-miterlimit: 10;fill:#27B5A1;fill-rule: nonzero;opacity: 1" transform=" matrix(1 0 0 1 0 0) " stroke-linecap="round" fill="#27B5A1" stroke="none"/>
	<path d="M 24.967 50.044 l 11.572 6.678 l 5.115 -2.958 l -14.006 -8.087 c -0.47 -0.271 -0.799 -0.71 -0.928 -1.214 c -0.047 -0.17 -0.073 -0.347 -0.073 -0.531 V 29.77 c -2.465 0.921 -4.514 2.659 -5.831 4.939 l -0.007 -0.027 c -2.442 4.245 -1.806 9.404 1.195 12.924 l 0.018 -0.019 C 22.854 48.564 23.846 49.399 24.967 50.044 z" style="stroke:none;stroke-width: 1;stroke-dasharray: none;stroke-linecap: butt;stroke-linejoin: miter;stroke-miterlimit: 10;fill:#27B5A1;fill-rule: nonzero;opacity: 1" transform=" matrix(1 0 0 1 0 0) " stroke-linecap="round" fill="#27B5A1" stroke="none"/>
	<path d="M 50.933 52.271 l -14.006 8.087 c -0.47 0.271 -1.015 0.337 -1.516 0.196 c -0.17 -0.044 -0.337 -0.11 -0.496 -0.202 L 22.65 53.27 c -0.435 2.595 0.046 5.239 1.362 7.519 l -0.027 -0.007 c 2.455 4.237 7.241 6.266 11.79 5.427 l -0.007 -0.025 c 1.262 -0.231 2.481 -0.674 3.6 -1.322 l 11.57 -6.682 L 50.933 52.271 z" style="stroke:none;stroke-width: 1;stroke-dasharray: none;stroke-linecap: butt;stroke-linejoin: miter;stroke-miterlimit: 10;fill:#27B5A1;fill-rule: nonzero;opacity: 1" transform=" matrix(1 0 0 1 0 0) " stroke-linecap="round" fill="#27B5A1" stroke="none"/>
	<path d="M 39.067 37.692 l 14.006 -8.087 c 0.47 -0.271 1.015 -0.337 1.515 -0.196 c 0.171 0.044 0.338 0.11 0.497 0.202 l 12.265 7.081 c 0.435 -2.595 -0.046 -5.239 -1.362 -7.519 l 0.027 0.007 c -2.455 -4.237 -7.241 -6.266 -11.79 -5.427 l 0.007 0.025 c -1.262 0.231 -2.481 0.674 -3.6 1.322 l -11.57 6.682 L 39.067 37.692 z" style="stroke:none;stroke-width: 1;stroke-dasharray: none;stroke-linecap: butt;stroke-linejoin: miter;stroke-miterlimit: 10;fill:#27B5A1;fill-rule: nonzero;opacity: 1" transform=" matrix(1 0 0 1 0 0) " stroke-linecap="round" fill="#27B5A1" stroke="none"/>
	<polygon points="39.06,48.41 45,51.84 50.94,48.41 50.94,41.55 45,38.12 39.06,41.55 " style="stroke:none;stroke-width: 1;stroke-dasharray: none;stroke-linecap: butt;stroke-linejoin: miter;stroke-miterlimit: 10;fill:#27B5A1;fill-rule: nonzero;opacity: 1" transform="  matrix(1 0 0 1 0 0) " fill="#27B5A1" stroke="none"/>
	<path d="M 54.28 43.488 v 16.173 c 0 0.542 -0.215 1.047 -0.588 1.411 c -0.124 0.125 -0.264 0.237 -0.423 0.329 l -12.265 7.081 c 2.03 1.674 4.56 2.58 7.193 2.58 l -0.02 0.02 c 4.897 -0.008 9.047 -3.138 10.595 -7.497 l -0.025 -0.006 c 0.431 -1.209 0.657 -2.486 0.655 -3.779 l -0.002 -13.361 L 54.28 43.488 z" style="stroke:none;stroke-width: 1;stroke-dasharray: none;stroke-linecap: butt;stroke-linejoin: miter;stroke-miterlimit: 10;fill:#27B5A1;fill-rule: nonzero;opacity: 1" transform=" matrix(1 0 0 1 0 0) " stroke-linecap="round" fill="#27B5A1" stroke="none"/>
	<path d="M 45 0 L 45 0 C 20.147 0 0 20.147 0 45 v 0 c 0 24.853 20.147 45 45 45 h 0.001 C 69.853 90 90 69.853 90 45 V 45 C 90 20.147 69.853 0 45 0 z M 72.569 57.23 c -2.128 3.726 -5.746 6.366 -9.944 7.259 l -0.005 0.027 c -2.035 6.24 -7.873 10.465 -14.444 10.465 c -4.291 0.02 -8.386 -1.793 -11.258 -4.982 l -0.026 0.009 c -6.421 1.358 -12.999 -1.586 -16.285 -7.277 c -2.163 -3.706 -2.64 -8.159 -1.315 -12.241 l -0.021 -0.018 c -4.386 -4.882 -5.126 -12.05 -1.841 -17.741 c 2.128 -3.726 5.746 -6.366 9.944 -7.259 l 0.005 -0.027 c 2.035 -6.24 7.873 -10.465 14.444 -10.465 c 4.291 -0.02 8.386 1.793 11.258 4.982 l 0.026 -0.009 c 6.421 -1.358 12.999 1.586 16.285 7.277 c 2.163 3.706 2.64 8.159 1.315 12.241 l 0.021 0.018 C 75.115 44.371 75.854 51.539 72.569 57.23 z" style="stroke:none;stroke-width: 1;stroke-dasharray: none;stroke-linecap: butt;stroke-linejoin: miter;stroke-miterlimit: 10;fill:#27B5A1;fill-rule: nonzero;opacity: 1" transform=" matrix(1 0 0 1 0 0) " stroke-linecap="round" fill="#27B5A1" stroke="none"/>
	<path d="M 67.978 42.375 c -0.831 -0.977 -1.824 -1.812 -2.945 -2.457 L 53.461 33.24 l -5.115 2.958 l 14.006 8.087 c 0.47 0.271 0.799 0.71 0.928 1.214 c 0.047 0.17 0.073 0.347 0.073 0.531 v 14.163 c 2.465 -0.921 4.514 -2.659 5.831 -4.939 l 0.007 0.027 h 0 c 2.442 -4.245 1.806 -9.404 -1.196 -12.924 L 67.978 42.375 z" style="stroke:none;stroke-width: 1;stroke-dasharray: none;stroke-linecap: butt;stroke-linejoin: miter;stroke-miterlimit: 10;fill:#27B5A1;fill-rule: nonzero;opacity: 1" transform=" matrix(1 0 0 1 0 0) " stroke-linecap="round" fill="#27B5A1" stroke="none"/>
</g>
</svg>