<svg xmlns="http://www.w3.org/2000/svg" viewBox="0 0 24 24"><title>Sketch</title><polygon points="5.24 2.21 12 1.52 18.77 2.21 24 8.993 12 22.48 0 8.993 5.24 2.21" fill="#fcb200"/><polygon points="4.86 8.993 12 22.48 0 8.993 4.86 8.993" fill="#e96c00"/><polygon points="19.14 8.993 12 22.48 24 8.993 19.14 8.993" fill="#e96c00"/><polygon points="4.86 8.993 19.14 8.993 12 22.48 4.86 8.993" fill="#fcac00"/><polygon points="12 1.52 5.24 2.21 4.86 8.993 12 1.52" fill="#fcd131"/><polygon points="12 1.52 18.77 2.21 19.14 8.993 12 1.52" fill="#fcd131"/><polygon points="24 8.993 18.77 2.21 19.14 8.993 24 8.993" fill="#fcac00"/><polygon points="0 8.993 5.24 2.21 4.86 8.993 0 8.993" fill="#fcac00"/><polygon points="12 1.52 4.86 8.993 19.14 8.993 12 1.52" fill="#fdedb6"/><rect width="24" height="24" fill="none"/></svg>