<svg width="20" height="20" viewBox="0 0 20 20" fill="none" xmlns="http://www.w3.org/2000/svg">
<g clip-path="url(#clip0_4688_2458)">
<path d="M8.28074 12.9162C8.20634 12.6278 8.05602 12.3646 7.84542 12.154C7.63482 11.9434 7.37164 11.7931 7.08324 11.7187L1.97074 10.4004C1.88352 10.3756 1.80675 10.3231 1.75209 10.2508C1.69742 10.1784 1.66785 10.0902 1.66785 9.99956C1.66785 9.90889 1.69742 9.82069 1.75209 9.74835C1.80675 9.67601 1.88352 9.62348 1.97074 9.59872L7.08324 8.27956C7.37153 8.20523 7.63465 8.05503 7.84524 7.84459C8.05584 7.63414 8.20621 7.37113 8.28074 7.08289L9.59908 1.97039C9.62358 1.88282 9.67606 1.80567 9.74851 1.75072C9.82096 1.69576 9.90939 1.66602 10.0003 1.66602C10.0913 1.66602 10.1797 1.69576 10.2521 1.75072C10.3246 1.80567 10.3771 1.88282 10.4016 1.97039L11.7191 7.08289C11.7935 7.37128 11.9438 7.63447 12.1544 7.84507C12.365 8.05567 12.6282 8.20599 12.9166 8.28039L18.0291 9.59789C18.117 9.62214 18.1945 9.67456 18.2498 9.74712C18.305 9.81968 18.335 9.90836 18.335 9.99956C18.335 10.0908 18.305 10.1794 18.2498 10.252C18.1945 10.3245 18.117 10.377 18.0291 10.4012L12.9166 11.7187C12.6282 11.7931 12.365 11.9434 12.1544 12.154C11.9438 12.3646 11.7935 12.6278 11.7191 12.9162L10.4007 18.0287C10.3762 18.1163 10.3238 18.1934 10.2513 18.2484C10.1789 18.3034 10.0904 18.3331 9.99949 18.3331C9.90856 18.3331 9.82012 18.3034 9.74768 18.2484C9.67523 18.1934 9.62275 18.1163 9.59824 18.0287L8.28074 12.9162Z" fill="white"/>
<path d="M16.6666 2.49955V5.83289Z" fill="white"/>
<path d="M18.3333 4.16622H15Z" fill="white"/>
<path d="M3.33329 14.1662V15.8329Z" fill="white"/>
<path d="M4.16663 14.9996H2.49996Z" fill="white"/>
<path d="M16.6666 2.49955V5.83289M18.3333 4.16622H15M3.33329 14.1662V15.8329M4.16663 14.9996H2.49996M8.28074 12.9162C8.20634 12.6278 8.05602 12.3646 7.84542 12.154C7.63482 11.9434 7.37164 11.7931 7.08324 11.7187L1.97074 10.4004C1.88352 10.3756 1.80675 10.3231 1.75209 10.2508C1.69742 10.1784 1.66785 10.0902 1.66785 9.99956C1.66785 9.90889 1.69742 9.82069 1.75209 9.74835C1.80675 9.67601 1.88352 9.62348 1.97074 9.59872L7.08324 8.27956C7.37153 8.20523 7.63465 8.05503 7.84524 7.84459C8.05584 7.63414 8.20621 7.37113 8.28074 7.08289L9.59908 1.97039C9.62358 1.88282 9.67606 1.80567 9.74851 1.75072C9.82096 1.69576 9.90939 1.66602 10.0003 1.66602C10.0913 1.66602 10.1797 1.69576 10.2521 1.75072C10.3246 1.80567 10.3771 1.88282 10.4016 1.97039L11.7191 7.08289C11.7935 7.37128 11.9438 7.63447 12.1544 7.84507C12.365 8.05567 12.6282 8.20599 12.9166 8.28039L18.0291 9.59789C18.117 9.62214 18.1945 9.67456 18.2498 9.74712C18.305 9.81968 18.335 9.90836 18.335 9.99956C18.335 10.0908 18.305 10.1794 18.2498 10.252C18.1945 10.3245 18.117 10.377 18.0291 10.4012L12.9166 11.7187C12.6282 11.7931 12.365 11.9434 12.1544 12.154C11.9438 12.3646 11.7935 12.6278 11.7191 12.9162L10.4007 18.0287C10.3762 18.1163 10.3238 18.1934 10.2513 18.2484C10.1789 18.3034 10.0904 18.3331 9.99949 18.3331C9.90856 18.3331 9.82012 18.3034 9.74768 18.2484C9.67523 18.1934 9.62275 18.1163 9.59824 18.0287L8.28074 12.9162Z" stroke="black" stroke-width="2" stroke-linecap="round" stroke-linejoin="round"/>
</g>
<defs>
<clipPath id="clip0_4688_2458">
<rect width="20" height="20" fill="white"/>
</clipPath>
</defs>
</svg>
