<svg xmlns="http://www.w3.org/2000/svg" viewBox="-60 -961 1085 1320"><path d="M207 -259C207 -280 190 -285 172 -285L149 -285L149 -233L165 -233C183 -233 207 -236 207 -259ZM190 -355C190 -375 173 -378 157 -378L149 -378L149 -332L156 -332C173 -332 190 -334 190 -355ZM265 112L150 -35L149 -35L149 112L87 112L87 -129L149 -129L264 19L265 19L265 -129L327 -129L327 112ZM388 112L388 -129L451 -129L451 112ZM270 -252C270 -202 227 -185 183 -185L87 -185L87 -426L176 -426C219 -426 248 -409 248 -363C248 -343 241 -324 221 -314L221 -314C256 -309 270 -285 270 -252ZM684 107C666 113 648 118 629 118C557 118 500 64 500 -8C500 -78 557 -135 627 -135C647 -135 666 -130 684 -123L684 -48C671 -65 650 -74 629 -74C591 -74 565 -45 565 -8C565 31 592 58 630 58C651 58 671 48 684 32L684 107ZM309 -185L309 -426L446 -426L446 -373L372 -373L372 -333L442 -333L442 -280L372 -280L372 -238L446 -238L446 -185ZM222 -561C222 -510 195 -476 143 -476C116 -476 95 -490 81 -512L115 -548C121 -541 132 -529 142 -529C159 -529 160 -548 160 -560L160 -672L86 -672L86 -723L222 -723L222 -561ZM740 112L740 -129L877 -129L877 -76L802 -76L802 -35L873 -35L873 18L802 18L802 59L877 59L877 112ZM484 -588C484 -515 456 -476 379 -476C301 -476 273 -515 273 -588L273 -723L336 -723L336 -597C336 -565 339 -531 379 -531C418 -531 421 -565 421 -597L421 -723L484 -723L484 -588ZM697 -564C697 -506 659 -476 603 -476C573 -476 543 -486 519 -504L545 -554C561 -541 580 -529 601 -529C616 -529 631 -537 631 -554C631 -595 528 -564 528 -649C528 -698 563 -730 611 -730C637 -730 664 -723 687 -710L662 -661C650 -671 635 -677 620 -677C609 -677 593 -671 593 -657C593 -622 697 -643 697 -564ZM838 -670L838 -483L775 -483L775 -670L724 -670L724 -723L890 -723L890 -670ZM965 -801L0 -801L0 199L965 199Z" fill="#000000" fill-rule="nonzero"/></svg>