<svg width="16" height="16" viewBox="0 0 16 16" fill="none" xmlns="http://www.w3.org/2000/svg">
<path d="M5.66309 14.2822H4.375V1.36426H5.66309V14.2822ZM6.31348 13.6367H5.66797V2.00977H6.31348V13.6367ZM6.96094 3.30273H7.60254V12.3457H6.96094V12.9912H6.31543V2.65625H6.96094V3.30273ZM8.25 11.6982H7.60449V3.94727H8.25V11.6982ZM8.89746 5.24023H9.54199V5.88672H10.1875V9.76172H9.54199V10.4082H8.89746V11.0547H8.25195V4.5957H8.89746V5.24023ZM10.835 7.17871H11.4766V8.4707H10.835V9.11621H10.1885V6.53223H10.835V7.17871Z" fill="white"/>
<path d="M5.66992 14.2822H5.02344V1.36426H5.66992V14.2822ZM6.31738 2.00977H6.95898V13.6367H6.31738V14.2822H5.6709V1.36426H6.31738V2.00977ZM7.60938 3.30273H8.25098V12.3457H7.60938V12.9912H6.96387V2.65625H7.60938V3.30273ZM8.89844 4.5957H9.54297V5.24023H10.1885V10.4082H9.54297V11.0547H8.89844V11.6982H8.25293V3.94727H8.89844V4.5957ZM10.8379 6.53223H11.4834V7.17871H12.125V8.4707H11.4834V9.11621H10.8379V9.76172H10.1924V5.88672H10.8379V6.53223Z" fill="black"/>
</svg>
