<svg width="200" height="161" viewBox="0 0 200 161" fill="none" xmlns="http://www.w3.org/2000/svg">
<path d="M186.862 13.8054C186.862 12.8702 186.801 10.2884 186.516 6.87919C186.361 5.02064 184.952 4.26406 183.831 3.55156C182.785 2.88689 181.009 2.37175 178.905 2.04608C178.001 1.90614 177.386 2.32442 176.973 3.18296C174.761 7.77094 176.713 13.2065 180.079 20.8642C182.561 26.5112 183.712 33.1792 184.231 34.0492C185.52 36.2055 188.889 25.9434 190.938 21.0324C192.469 17.362 194.784 12.8047 194.711 8.62775C194.692 7.54072 193.842 6.77886 193.19 6.36732C192.539 5.95579 191.833 5.95807 191.198 6.2279C190.563 6.49773 190.021 7.03506 189.741 8.18643C189.462 9.33781 189.462 11.087 189.492 13.376M19.6939 19.3034C19.6325 17.8241 17.9315 14.522 15.4232 12.2959C13.1594 10.287 8.97793 9.95517 5.34938 10.1294C3.665 10.2103 2.93433 12.4064 2.37856 14.3075C1.5992 16.9735 2.53595 19.9236 3.77992 22.578C8.61473 32.8945 22.0806 37.908 24.5422 38.6927C28.2622 39.8786 30.3438 30.6989 31.5373 25.9251C33.3461 18.6897 28.9542 15.5758 27.0393 13.2687C26.0287 12.051 24.8107 11.2506 23.693 10.791C23.1284 10.5588 22.5057 10.4997 21.9929 10.7194C21.4801 10.9392 21.0799 11.4833 20.8738 12.3965C20.6676 13.3096 20.6676 14.5752 20.957 16.474M109.67 135.337C109.67 134.568 108.872 133.12 107.214 131.331C103.713 127.555 96.9566 128.298 94.6327 128.711C92.6735 129.06 92.2891 132.494 92.0667 135.523C91.6626 141.029 104.958 150.984 111.643 155.375C115.112 157.655 117.009 158.398 117.948 158.722C123.558 160.657 123.611 144.569 125.49 137.488C126.854 132.349 125.419 128.862 123.35 125.218C122.194 123.183 120.256 122.098 118.384 121.535C117.408 121.242 116.279 121.344 115.413 121.527C112.193 122.208 111.247 127.345 110.808 130.514C110.697 131.822 110.533 133.092 110.371 134.404C110.316 135.048 110.316 135.648 110.316 136.267M114.103 138.66V138.654C114.103 138.654 114.103 139.281 114.102 140.357M114.102 140.357C114.102 140.85 114.102 141.438 114.101 142.102M114.102 140.357C113.973 140.722 113.846 141.118 113.739 141.523M114.102 140.357C114.152 140.216 114.202 140.08 114.252 139.949M114.101 142.102C114.1 142.701 114.099 143.363 114.098 144.075C114.098 144.212 114.059 144.245 113.983 144.195M114.101 142.102C114.003 141.999 113.891 141.933 113.763 141.908M114.101 142.102C114.171 142.176 114.234 142.268 114.291 142.377M113.983 144.195C113.877 144.124 113.7 143.888 113.461 143.537M113.983 144.195C113.911 143.576 113.821 142.748 113.763 141.908M113.983 144.195C114.026 144.571 114.063 144.87 114.081 145.048C114.087 145.106 114.092 145.155 114.098 145.196M113.461 143.537C113.276 143.264 113.053 142.92 112.797 142.53M113.461 143.537C113.485 144.197 113.665 144.785 114.098 145.196M113.461 143.537C113.443 143.016 113.521 142.449 113.648 141.89M112.797 142.53C112.636 142.284 112.461 142.019 112.275 141.742M112.797 142.53C112.654 142.859 112.419 143.093 112.055 143.164C111.831 143.207 111.345 143.158 111.282 142.868C111.206 142.515 111.135 142.06 111.08 141.548M112.797 142.53C112.887 142.323 112.941 142.079 112.967 141.815M112.275 141.742C112.039 141.391 111.783 141.02 111.511 140.641C111.292 140.335 111.118 140.263 110.985 140.317M112.275 141.742C111.897 141.697 111.493 141.638 111.08 141.548M112.275 141.742C112.518 141.77 112.75 141.793 112.967 141.815M110.985 140.317C110.818 140.384 110.714 140.65 110.659 140.903C110.622 141.078 110.594 141.257 110.568 141.419M110.985 140.317C110.952 139.638 110.95 138.925 110.993 138.252M110.985 140.317C111.005 140.747 111.039 141.164 111.08 141.548M110.568 141.419C110.525 141.68 110.482 141.899 110.398 141.989C110.15 142.255 109.242 141.195 108.261 140.416M110.568 141.419C109.834 141.21 109.096 140.883 108.446 140.343M110.568 141.419C110.739 141.468 110.91 141.511 111.08 141.548M108.261 140.416C108.194 140.364 108.128 140.312 108.061 140.263C107.859 140.113 107.695 140.272 107.577 140.516M108.261 140.416C108.322 140.395 108.384 140.371 108.446 140.343M108.261 140.416C108.028 140.495 107.8 140.526 107.577 140.516M107.577 140.516C107.496 140.685 107.436 140.895 107.402 141.072C107.211 142.055 107.374 142.897 107.569 143.469M107.577 140.516C106.666 140.474 105.835 139.742 105.115 138.766M107.569 143.469C107.68 143.796 107.801 144.036 107.872 144.164C107.944 144.293 107.819 143.991 107.569 143.469ZM107.569 143.469C107.207 142.715 106.583 141.502 105.919 140.477C105.608 139.997 105.316 140.963 104.763 141.104C104.514 141.167 104.207 140.94 103.891 140.647M103.891 140.647C103.396 140.187 102.876 139.563 102.521 139.64C101.94 139.765 101.918 141.283 101.844 141.889C101.805 142.208 100.956 140.967 99.6575 139.762C99.2887 139.42 99.0552 140.866 98.9893 141.543C98.9641 141.801 98.4219 140.807 97.9351 140.479C97.5018 140.186 96.8608 140.718 96.2803 140.616C94.8463 140.364 95.2 137.66 95.0106 135.787C94.8779 134.476 95.9945 132.843 96.4517 131.368C96.907 129.899 99.0393 130.417 100.009 130.596C100.361 130.661 100.259 131.133 100.091 131.385C99.7652 131.875 99.0347 132.19 98.4884 132.82C98.0964 133.271 98.0688 134.04 98.1199 134.873M103.891 140.647C104.19 140.009 104.577 139.382 105.076 138.81C105.089 138.795 105.102 138.781 105.115 138.766M103.891 140.647C103.412 141.674 103.164 142.728 103.056 143.627M98.1199 134.873C98.1399 135.199 98.1719 135.535 98.1989 135.867C98.2738 136.786 99.0111 137.352 99.6655 137.767C99.8856 137.906 100.114 137.989 100.324 138.008M98.1199 134.873C98.1548 134.859 98.1916 134.847 98.2303 134.838C98.9794 134.655 100.054 134.638 100.582 135.359C101.096 136.061 101.421 136.859 101.183 137.459C101.07 137.742 100.852 137.949 100.58 137.999C100.567 138.001 100.554 138.003 100.541 138.005M98.1199 134.873C97.4815 135.124 97.4458 136.062 97.4043 136.578C97.3822 136.852 97.3893 137.122 97.6973 137.37C98.3292 137.878 99.3409 138.013 100.324 138.008M100.324 138.008C100.399 138.015 100.471 138.014 100.541 138.005M100.324 138.008C100.396 138.008 100.469 138.007 100.541 138.005M100.541 138.005C100.738 138 100.932 137.99 101.121 137.977C101.524 137.95 101.881 137.854 102.199 137.713M102.199 137.713C102.34 137.65 102.472 137.579 102.598 137.501M102.199 137.713C102.187 137.702 102.175 137.692 102.164 137.681C102.055 137.576 101.985 137.443 101.955 137.28M102.199 137.713C102.539 137.996 103.258 138.052 104.078 138.011M102.598 137.501C102.76 137.4 102.911 137.287 103.051 137.166M102.598 137.501C102.583 137.501 102.568 137.501 102.554 137.5C102.314 137.491 102.114 137.405 101.955 137.28M102.598 137.501C102.792 137.5 103.012 137.448 103.236 137.356M103.051 137.166C103.312 136.942 103.537 136.691 103.735 136.438M103.051 137.166C102.993 137.102 102.935 137.036 102.878 136.966C102.536 136.553 102.496 136.085 102.721 135.785C102.833 135.636 103.007 135.501 103.233 135.387M103.051 137.166C103.112 137.232 103.174 137.296 103.236 137.356M103.735 136.438C103.874 136.262 103.999 136.085 104.114 135.916M103.735 136.438C103.813 136.594 103.893 136.751 103.976 136.908M103.735 136.438C103.561 136.09 103.4 135.749 103.253 135.431M104.114 135.916C104.129 135.894 104.144 135.872 104.158 135.85M104.114 135.916C103.857 135.869 103.608 135.774 103.395 135.603C103.332 135.552 103.285 135.494 103.253 135.431M104.114 135.916C104.153 135.922 104.192 135.928 104.231 135.933M104.158 135.85C104.183 135.813 104.208 135.776 104.232 135.74C104.349 135.564 104.101 135.337 103.837 135.216M104.158 135.85C103.97 135.633 103.789 135.424 103.62 135.226M104.158 135.85C104.182 135.878 104.206 135.905 104.231 135.933M103.837 135.216C103.813 135.205 103.789 135.195 103.765 135.186C103.763 135.185 103.76 135.184 103.757 135.183M103.837 135.216C103.795 135.209 103.754 135.203 103.714 135.196M103.837 135.216C104.198 135.271 104.629 135.301 105.102 135.315M103.757 135.183C103.687 135.157 103.612 135.137 103.534 135.124M103.757 135.183C104.168 135.062 104.667 134.989 105.225 134.98M103.757 135.183C103.743 135.187 103.729 135.191 103.714 135.196M103.534 135.124C103.462 135.112 103.389 135.105 103.315 135.103M103.534 135.124C103.429 135.001 103.329 134.882 103.234 134.769M103.534 135.124C103.546 135.138 103.558 135.153 103.571 135.168M103.315 135.103C103.272 135.102 103.23 135.103 103.188 135.105M103.315 135.103C103.271 135.09 103.229 135.076 103.19 135.061M103.315 135.103C103.394 135.127 103.479 135.149 103.571 135.168M103.188 135.105C103.161 135.107 103.133 135.109 103.106 135.112M103.188 135.105C103.188 135.091 103.189 135.076 103.19 135.061M103.188 135.105C103.186 135.207 103.198 135.301 103.233 135.387M103.106 135.112C102.998 135.123 102.892 135.147 102.797 135.181C102.265 135.374 102.057 136.137 101.953 136.906C101.934 137.044 101.935 137.169 101.955 137.28M103.106 135.112C103.147 135.201 103.189 135.293 103.233 135.387M103.106 135.112C103.09 135.076 103.074 135.04 103.058 135.005M101.955 137.28C101.835 137.184 101.737 137.065 101.663 136.939C101.343 136.395 100.928 135.506 101.442 134.865C101.655 134.598 101.921 134.364 102.223 134.183M104.078 138.011C104.243 138.003 104.412 137.99 104.583 137.975M104.078 138.011C103.791 137.838 103.507 137.623 103.236 137.356M104.078 138.011C104.331 138.163 104.586 138.282 104.839 138.374M104.583 137.975C104.64 137.97 104.699 137.965 104.757 137.959C105.152 137.92 105.376 137.641 105.522 137.38M104.583 137.975C104.666 138.11 104.752 138.244 104.839 138.374M104.583 137.975C104.368 137.628 104.165 137.267 103.976 136.908M105.522 137.38C105.553 137.325 105.58 137.27 105.605 137.218C105.846 136.717 105.885 136.175 105.78 135.629M105.522 137.38C105.189 137.015 104.862 136.651 104.553 136.3M105.522 137.38C105.682 137.555 105.843 137.73 106.005 137.904M105.78 135.629C105.761 135.528 105.737 135.427 105.708 135.326M105.78 135.629C105.669 135.735 105.543 135.815 105.408 135.845C105.231 135.885 105.019 135.924 104.793 135.942M105.78 135.629C105.874 135.541 105.957 135.435 106.027 135.326M105.708 135.326C105.676 135.211 105.638 135.097 105.594 134.983M105.708 135.326C105.5 135.324 105.298 135.321 105.102 135.315M105.708 135.326C105.813 135.326 105.919 135.326 106.027 135.326M105.594 134.983C105.53 134.814 105.453 134.645 105.368 134.479M105.594 134.983C105.784 134.989 105.979 135.003 106.178 135.024M105.594 134.983C105.469 134.979 105.346 134.978 105.225 134.98M105.368 134.479C105.278 134.304 105.177 134.132 105.068 133.963C105.034 133.911 104.994 133.869 104.949 133.836M105.368 134.479C105.327 134.649 105.279 134.817 105.225 134.98M105.368 134.479C105.406 134.319 105.439 134.156 105.467 133.99M104.949 133.836C104.774 133.705 104.526 133.694 104.322 133.681C104.146 133.67 103.974 133.689 103.82 133.768M104.949 133.836C105.127 133.87 105.301 133.92 105.467 133.99M104.949 133.836C104.568 133.761 104.173 133.755 103.82 133.768M103.82 133.768C103.75 133.804 103.684 133.853 103.623 133.916C103.435 134.113 103.305 134.452 103.234 134.769M103.82 133.768C103.705 133.773 103.594 133.779 103.49 133.785C103.177 133.805 102.877 133.878 102.6 133.993M103.234 134.769C103.232 134.78 103.229 134.791 103.227 134.802C103.208 134.892 103.195 134.979 103.19 135.061M103.234 134.769C102.98 134.465 102.765 134.201 102.6 133.993M103.19 135.061C103.143 135.043 103.099 135.025 103.058 135.005M103.233 135.387C103.233 135.388 103.234 135.39 103.234 135.391C103.24 135.405 103.246 135.418 103.253 135.431M103.233 135.387C103.349 135.327 103.478 135.274 103.62 135.226M103.233 135.387C103.232 135.387 103.233 135.387 103.233 135.387ZM104.231 135.933C104.42 135.957 104.611 135.956 104.793 135.942M104.231 135.933C104.336 136.053 104.443 136.176 104.553 136.3M104.793 135.942C104.719 136.066 104.639 136.185 104.553 136.3M104.793 135.942C104.911 135.743 105.013 135.534 105.102 135.315M106.027 135.326C106.055 135.281 106.081 135.237 106.105 135.192C106.135 135.137 106.159 135.08 106.178 135.024M106.027 135.326C106.239 135.325 106.456 135.323 106.676 135.319C107.185 135.311 106.935 135.111 106.273 135.034C106.242 135.03 106.21 135.027 106.178 135.024M106.178 135.024C106.257 134.787 106.232 134.542 106.015 134.34C105.852 134.188 105.666 134.075 105.467 133.99M105.467 133.99C105.691 132.659 105.587 131.178 105.383 129.884C105.309 129.414 104.897 129.299 104.617 129.204C104.083 129.023 103.363 129.103 102.658 129.302C101.492 129.632 101.94 132.466 102.154 133.968C102.164 134.041 102.188 134.113 102.223 134.183M102.6 133.993C102.598 133.994 102.595 133.995 102.593 133.996M102.6 133.993C102.592 133.983 102.585 133.974 102.577 133.964M102.593 133.996C102.465 134.049 102.341 134.112 102.223 134.183M102.593 133.996C102.72 134.255 102.876 134.604 103.058 135.005M102.593 133.996C102.588 133.985 102.583 133.975 102.577 133.964M102.223 134.183C102.358 134.455 102.65 134.705 102.877 134.892C102.927 134.933 102.988 134.971 103.058 135.005M103.236 137.356C103.491 137.252 103.75 137.096 103.976 136.908M103.976 136.908C103.978 136.906 103.98 136.904 103.983 136.903C104.198 136.723 104.387 136.521 104.553 136.3M105.102 135.315C105.147 135.206 105.188 135.094 105.225 134.98M103.571 135.168C103.617 135.178 103.665 135.187 103.714 135.196M103.571 135.168C103.587 135.187 103.604 135.206 103.62 135.226M103.714 135.196C103.682 135.205 103.651 135.215 103.62 135.226M104.839 138.374C105.006 138.435 105.172 138.484 105.335 138.523M104.839 138.374C104.929 138.508 105.021 138.639 105.115 138.766M105.335 138.523C105.834 138.644 106.309 138.672 106.718 138.658M105.335 138.523C105.563 138.281 105.787 138.072 106.005 137.904M105.335 138.523C105.262 138.601 105.189 138.682 105.115 138.766M106.718 138.658C107.249 138.641 107.668 138.553 107.884 138.503C108.165 138.438 108.199 138.047 108.055 137.827C107.911 137.607 107.552 137.479 107.211 137.444C106.831 137.405 106.428 137.577 106.005 137.904M106.718 138.658C106.482 138.413 106.243 138.16 106.005 137.904M106.718 138.658C107.26 139.221 107.789 139.748 108.265 140.185C108.325 140.24 108.385 140.292 108.446 140.343M103.056 143.627C102.992 144.159 102.977 144.636 102.992 145.022M103.056 143.627C103.538 143.684 103.947 143.808 104.17 144.061C104.345 144.259 104.345 144.533 104.272 144.889C104.216 145.165 104.118 145.483 103.957 145.682M103.056 143.627C102.662 143.58 102.22 143.578 101.792 143.586C101.37 143.593 101.104 143.878 100.963 144.374C100.823 144.87 100.823 145.64 100.971 146.145C101.12 146.651 101.416 146.869 101.7 146.994C101.984 147.119 102.246 147.146 102.268 146.891C102.338 146.077 101.585 145.217 101.409 144.768C101.084 143.941 101.832 144.263 102.992 145.022M102.992 145.022C102.997 145.144 103.005 145.257 103.015 145.359C103.066 145.87 103.543 145.968 103.801 145.819C103.859 145.785 103.91 145.738 103.957 145.682M102.992 145.022C103.29 145.217 103.616 145.441 103.957 145.682M103.957 145.682C105.375 146.682 107.069 147.97 108.231 148.677M108.231 148.677C108.593 148.898 108.904 149.062 109.139 149.142C109.564 149.289 110.053 149.245 110.427 149.138C110.801 149.03 111.064 148.781 111.216 148.049C111.239 147.937 111.259 147.826 111.276 147.715M108.231 148.677C107.722 147.709 107.601 147.045 108.592 147.358C109.198 147.55 110.69 149.116 111.006 148.384C111.094 148.18 111.177 147.935 111.276 147.715M108.231 148.677C108.876 149.907 110.147 151.629 110.557 152.468C111.564 154.525 114.06 155.03 115.11 155.503C115.633 155.738 116.584 155.922 117.729 155.943C118.206 155.951 118.455 155.686 118.671 155.373C119.144 154.688 119.238 153.275 119.211 152.067C119.188 151.088 118.588 154.136 118.296 154.385C117.391 155.156 115.689 153.293 114.119 151.561M111.276 147.715C111.556 145.931 111.11 144.283 110.767 143.797C109.858 142.511 111.829 145.221 113.669 147.352M111.276 147.715C111.431 147.375 111.627 147.094 111.948 147.122C112.177 147.141 112.88 147.164 113.669 147.352M113.669 147.352C114.382 148.177 115.075 148.915 115.574 149.299M113.669 147.352C114.495 147.548 115.417 147.926 115.991 148.673M115.574 149.299C115.622 149.337 115.669 149.371 115.714 149.402C116.067 149.643 116.484 149.73 116.439 149.568C116.341 149.222 116.186 148.926 115.991 148.673M115.574 149.299C115.483 150.081 115.516 150.833 115.252 151.264C115.094 151.52 114.815 151.85 114.531 151.792C114.447 151.775 114.301 151.69 114.119 151.561M115.574 149.299C115.583 149.216 115.594 149.132 115.608 149.048C115.644 148.813 115.814 148.703 115.991 148.673M115.991 148.673C116.078 148.658 116.168 148.662 116.243 148.68C117.46 148.976 117.87 150.569 118.374 150.556C120.278 150.505 121.076 148.225 121.446 145.908M114.119 151.561C113.283 150.639 112.485 149.754 111.863 149.325C110.751 148.557 113.06 150.81 114.119 151.561ZM121.446 145.908C121.511 145.495 121.563 145.082 121.606 144.679M121.446 145.908C121.113 145.318 120.6 144.12 120.024 142.915M121.446 145.908C121.503 146.009 121.555 146.093 121.601 146.155C121.978 146.668 121.931 145.697 121.686 144.471M121.606 144.679C121.62 144.543 121.633 144.407 121.645 144.273M121.606 144.679C121.633 144.611 121.66 144.541 121.686 144.471M121.606 144.679C121.539 144.849 121.47 145.013 121.4 145.17C121.223 145.566 121.317 144.952 121.53 143.766M121.645 144.273C121.696 143.724 121.729 143.204 121.757 142.749M121.645 144.273C121.659 144.34 121.673 144.406 121.686 144.471M121.645 144.273C121.61 144.107 121.571 143.936 121.53 143.766M121.757 142.749C121.764 142.625 121.771 142.507 121.778 142.394M121.757 142.749C122.042 142.422 122.272 142.133 122.287 142.382C122.289 142.417 122.291 142.451 122.293 142.486M121.757 142.749C121.739 142.769 121.721 142.79 121.703 142.811M121.778 142.394C121.818 141.722 121.849 141.237 121.914 141.079M121.778 142.394C121.752 142.537 121.727 142.676 121.703 142.811M121.778 142.394C121.855 141.97 121.936 141.514 122.02 141.034M121.914 141.079C121.931 141.039 121.95 141.02 121.971 141.024C121.978 141.026 121.984 141.027 121.991 141.028M121.914 141.079C121.618 141.283 121.289 141.574 120.947 141.917M121.914 141.079C121.94 141.062 121.966 141.045 121.991 141.028M121.991 141.028C122.001 141.03 122.01 141.032 122.02 141.034M121.991 141.028C122.002 141.021 122.013 141.014 122.025 141.007M122.02 141.034C122.186 141.071 122.333 141.123 122.463 141.19M122.02 141.034C122.021 141.025 122.023 141.016 122.025 141.007M122.463 141.19C124.545 142.261 122.353 147.035 122.242 147.52C122.198 147.709 122.443 145.121 122.293 142.486M122.463 141.19C122.445 140.938 122.36 140.822 122.188 140.912C122.135 140.94 122.08 140.972 122.025 141.007M122.463 141.19C122.484 141.478 122.418 141.944 122.293 142.486M122.293 142.486C122.152 143.101 121.935 143.813 121.686 144.471M121.703 142.811C121.595 142.933 121.481 143.055 121.369 143.154M121.703 142.811C121.639 143.158 121.581 143.479 121.53 143.766M121.369 143.154C121.178 143.322 120.992 143.418 120.853 143.316C120.605 143.135 120.402 142.919 120.233 142.678M121.369 143.154C121.426 143.355 121.48 143.561 121.53 143.766M121.369 143.154C121.241 142.7 121.096 142.268 120.947 141.917M120.233 142.678C119.894 142.194 119.697 141.609 119.574 141.009M120.233 142.678C120.163 142.756 120.094 142.835 120.024 142.915M120.233 142.678C120.473 142.409 120.713 142.151 120.947 141.917M119.574 141.009C119.321 139.776 119.381 138.476 119.164 137.84C118.769 136.678 118.098 137.769 117.42 139.473M119.574 141.009C119.993 140.708 120.43 140.824 120.853 141.706C120.884 141.772 120.916 141.843 120.947 141.917M119.574 141.009C119.457 141.093 119.34 141.21 119.227 141.353M117.42 139.473C116.517 141.738 115.601 145.084 115.299 145.651M117.42 139.473C116.26 139.682 115.632 143.761 115.299 145.651M117.42 139.473C117.488 139.46 117.557 139.462 117.629 139.477C118.11 139.582 118.672 140.359 119.227 141.353M115.299 145.651C115.268 145.708 115.244 145.737 115.227 145.734C115.095 145.708 114.971 145.676 114.856 145.638M115.299 145.651C115.288 145.714 115.277 145.775 115.266 145.833C114.924 147.73 114.947 146.802 114.869 145.794C114.865 145.742 114.861 145.69 114.856 145.638M114.856 145.638C114.589 145.549 114.367 145.425 114.184 145.273M114.856 145.638C114.745 144.233 114.625 143.017 114.291 142.377M114.184 145.273C114.154 145.248 114.126 145.223 114.098 145.196M114.184 145.273C114.158 145.426 114.128 145.417 114.098 145.196M114.184 145.273C114.244 144.928 114.288 143.759 114.291 142.377M113.648 141.89C113.676 141.767 113.706 141.645 113.739 141.523M113.648 141.89C113.446 141.862 113.217 141.839 112.967 141.815M113.648 141.89C113.679 141.894 113.709 141.899 113.738 141.903C113.747 141.905 113.755 141.906 113.763 141.908M113.739 141.523C113.655 140.032 113.699 138.595 114.158 138.301M113.739 141.523C113.746 141.651 113.754 141.779 113.763 141.908M114.252 139.949C114.57 139.103 114.851 138.497 114.797 138.453C114.526 138.235 114.317 138.199 114.158 138.301M114.252 139.949C114.281 140.753 114.293 141.599 114.291 142.377M114.252 139.949C114.23 139.364 114.2 138.801 114.158 138.301M114.158 138.301C114.101 137.611 114.022 137.042 113.917 136.704C113.794 136.308 113.526 135.893 113.249 135.593M113.249 135.593C113.195 135.534 113.14 135.479 113.085 135.43C112.919 135.28 112.747 135.192 112.584 135.153M113.249 135.593C113.093 136.766 112.866 137.817 112.447 138.534M113.249 135.593C113.342 134.899 113.411 134.163 113.479 133.428M112.584 135.153C112.425 135.115 112.275 135.125 112.149 135.169C111.419 135.427 111.09 136.737 110.993 138.252M112.584 135.153C112.852 134.525 113.15 133.931 113.479 133.428M112.584 135.153C112.169 136.13 111.827 137.193 111.558 138.135M110.993 138.252C111.169 138.188 111.357 138.146 111.558 138.135M110.993 138.252C109.884 138.657 109.217 139.967 108.524 140.307C108.498 140.32 108.472 140.332 108.446 140.343M112.967 141.815C113.088 140.582 112.611 138.91 112.447 138.534M112.447 138.534C112.443 138.525 112.439 138.517 112.436 138.509C112.314 138.254 111.966 138.127 111.634 138.133C111.608 138.133 111.583 138.134 111.558 138.135M112.447 138.534C112.191 138.974 111.863 139.288 111.435 139.428C111.321 139.465 111.271 139.182 111.375 138.795C111.432 138.584 111.493 138.363 111.558 138.135M102.577 133.964C102.465 133.737 102.376 133.583 102.313 133.529C102.155 133.395 102.273 133.577 102.577 133.964ZM119.227 141.353C119.498 141.839 119.767 142.378 120.024 142.915M119.227 141.353C119.032 141.596 118.843 141.913 118.665 142.265C118.011 143.557 117.515 145.293 117.28 146.007C117.031 146.764 118.49 144.675 120.024 142.915M122.025 141.007C122.431 138.672 122.881 135.788 122.997 133.442C123.107 131.236 122.548 129.882 122.254 129.46C122.112 129.257 121.646 129.362 121.263 129.483M121.263 129.483C121.16 129.515 121.063 129.549 120.98 129.578C120.788 129.645 120.607 129.748 120.437 129.88M121.263 129.483C121.238 129.411 121.211 129.356 121.183 129.32C120.569 128.531 119.73 127.542 118.865 126.684M121.263 129.483C121.602 130.449 121.703 134.568 121.795 139.492C121.8 139.761 121.277 136.105 121.187 133.122C121.155 132.042 120.869 130.935 120.437 129.88M120.437 129.88C119.102 130.914 118.409 133.749 118.256 135.406C118.049 137.652 117.616 132.613 117.172 131.29M120.437 129.88C119.997 128.804 119.405 127.781 118.778 126.897M117.172 131.29C117.137 131.185 117.102 131.104 117.067 131.052C116.87 130.755 116.558 130.773 116.285 131.077C116.056 131.33 115.87 131.617 115.72 131.93M117.172 131.29C117 131.697 116.825 132.067 116.65 132.372M117.172 131.29C117.772 129.869 118.341 127.999 118.778 126.897M115.72 131.93C115.565 132.252 115.447 132.602 115.36 132.972M115.72 131.93C115.787 131.939 115.855 131.952 115.923 131.968C116.164 132.024 116.468 132.107 116.65 132.372M115.72 131.93C115.457 131.894 115.206 131.917 114.945 132.027C114.943 132.028 114.941 132.028 114.94 132.029M115.36 132.972C114.898 134.925 115.278 137.43 115.403 139.326C115.466 140.28 115.793 140.453 116.075 139.694C116.957 137.317 116.979 134.442 116.8 132.808C116.78 132.624 116.726 132.482 116.65 132.372M115.36 132.972C115.309 132.906 115.259 132.828 115.21 132.734C115.13 132.583 115.036 132.341 114.94 132.029M115.36 132.972C115.766 133.495 116.209 133.142 116.65 132.372M114.94 132.029C114.398 132.259 113.912 132.767 113.479 133.428M114.94 132.029C114.5 130.603 114.016 127.73 114.672 125.581M113.479 133.428C113.529 132.9 113.579 132.372 113.639 131.862C113.912 129.519 113.485 127.862 114.185 126.428C114.342 126.108 114.504 125.823 114.672 125.581M114.672 125.581C114.954 125.178 115.254 124.898 115.577 124.783C116.164 124.576 117.051 125.08 117.985 125.873M114.672 125.581C114.772 125.253 114.899 124.942 115.057 124.655C115.257 124.291 115.577 123.88 115.903 124.032C116.437 124.281 117.202 124.946 117.985 125.873M117.985 125.873C118.276 126.12 118.572 126.395 118.865 126.684M117.985 125.873C118.25 126.187 118.517 126.53 118.778 126.897M118.865 126.684C118.836 126.752 118.807 126.823 118.778 126.897M118.865 126.684C119.045 126.257 119.199 125.987 119.319 125.971C119.838 125.901 120.367 125.975 120.853 126.134M120.853 126.134C120.87 126.14 120.888 126.146 120.905 126.152M120.853 126.134C120.757 125.935 120.668 125.762 120.598 125.63M120.853 126.134C120.866 126.162 120.88 126.19 120.894 126.219C121.248 126.965 121.678 128.029 122.122 129.192M120.905 126.152C121.154 126.237 121.39 126.344 121.607 126.465C122.124 126.754 122.245 127.464 122.417 128.073C122.5 128.363 122.511 128.629 122.106 128.062C121.81 127.647 121.283 126.787 120.905 126.152ZM120.905 126.152C120.783 125.947 120.676 125.765 120.598 125.63M120.598 125.63C120.587 125.61 120.576 125.591 120.566 125.574C120.363 125.221 120.425 125.304 120.598 125.63ZM19.4395 18.5306C19.4395 17.7803 19.7428 15.6516 20.7532 13.5593C21.6677 11.6656 24.3689 9.51614 27.4409 8.2383C29.8276 7.24553 32.041 8.40028 32.8456 9.01865C34.5288 10.3122 34.7567 16.2017 34.4065 19.8581L34.3811 19.966C33.9376 21.8508 33.4739 23.8212 32.7718 25.5431C32.5852 25.9493 32.4028 26.3454 32.108 26.8587M27.6575 12.7405C27.6217 12.7758 27.5859 12.811 27.7224 12.677C28.0268 12.3782 28.2377 14.5796 28.6609 17.0274M28.6609 17.0274C28.8585 18.1706 29.1024 19.3675 29.4238 20.3886C29.4303 20.4093 29.4368 20.4293 29.4435 20.4485M28.6609 17.0274C28.2443 18.3469 27.8597 19.9447 27.5489 21.8551M28.6609 17.0274C29.4991 14.3731 30.467 12.8454 31.2248 12.1658C32.2304 11.2641 32.7559 9.64109 32.9613 8.45082C30.9797 8.87618 29.0367 10.2063 28.1553 10.6152C27.6902 10.7946 27.1889 10.9171 25.8332 11.391M29.4435 20.4485C29.7452 21.323 30.1472 20.6067 30.5236 19.3727M29.4435 20.4485C29.769 20.1499 30.1306 19.7942 30.5236 19.3727M29.4435 20.4485C28.4188 21.3885 27.7523 21.7619 27.5939 21.8348C27.5788 21.8418 27.5638 21.8485 27.5489 21.8551M30.5236 19.3727C30.9771 17.8859 31.3934 15.6474 31.5524 14.5348C31.6362 13.9482 31.5876 13.2607 31.7647 13.0641C31.9417 12.8674 32.2959 13.1774 32.5027 13.8314C33.0039 15.4164 32.5381 16.985 31.6874 18.032C31.2753 18.5393 30.8861 18.984 30.5236 19.3727ZM27.5489 21.8551C24.009 23.4194 27.661 13.9814 27.0799 13.1912C26.8062 12.8188 26.3443 12.7115 25.9071 12.807C24.1148 13.1986 23.4918 15.8059 23.2544 18.6356M27.5489 21.8551C27.2413 23.7465 27.0059 25.9444 26.8835 28.4819M23.2544 18.6356C23.1537 19.836 23.1224 21.0764 23.1007 22.2047C23.085 23.0255 23.235 23.4967 23.3774 23.4747C24.0157 23.3763 23.9105 20.7153 23.7726 18.4289C23.7423 17.9276 23.5054 18.1098 23.2544 18.6356ZM23.2544 18.6356C23.1851 18.7807 23.1148 18.9519 23.0475 19.1422C22.293 21.2741 21.9918 24.048 22.1445 26.0901C22.1939 26.75 22.8327 26.5158 23.2218 26.1426C23.4597 25.9144 23.6589 25.6245 23.7874 25.4928M23.7874 25.4928C23.8691 25.4091 23.9223 25.3892 23.9389 25.4896C24.1695 26.887 24.2025 28.2349 24.1713 29.4107M23.7874 25.4928C23.5879 26.4095 23.2087 27.3988 22.4543 27.916C21.9583 28.2561 21.4313 28.0447 21.0136 27.6686C20.6331 27.3261 20.1137 26.68 19.5443 25.8865M23.7874 25.4928C23.943 24.7779 23.9894 24.1073 24.0192 23.7392C24.2839 20.4668 24.7607 26.6027 25.2831 28.9237M24.1713 29.4107C24.1634 29.7054 24.1516 29.9893 24.1378 30.2604M24.1713 29.4107C24.4008 29.4706 24.5962 29.6388 24.645 29.9512C24.689 30.2328 24.7105 30.5492 24.714 30.8732M24.1713 29.4107C23.9713 29.3585 23.7454 29.3885 23.5679 29.4771C23.53 29.4961 23.493 29.5182 23.4569 29.5431M24.1378 30.2604C24.0567 31.854 23.9088 33.0075 24.1205 33.3289C24.4151 33.776 24.7288 32.2555 24.714 30.8732M24.1378 30.2604C24.3306 30.4651 24.5232 30.6704 24.714 30.8732M24.1378 30.2604C23.9103 30.0189 23.6824 29.7781 23.4569 29.5431M24.714 30.8732C24.8797 31.0492 25.0439 31.2234 25.2058 31.3936M23.4569 29.5431C23.1313 29.7685 22.8872 30.2278 22.7551 30.7312C22.6084 31.2903 22.6084 31.8884 22.7922 32.3803C22.976 32.8722 23.3436 33.2398 23.7478 33.47C24.152 33.7002 24.5817 33.7819 24.84 33.1688C25.0777 32.6046 25.1822 31.9945 25.2058 31.3936M23.4569 29.5431C23.0895 29.1602 22.7282 28.7926 22.3844 28.4623C21.6381 27.7453 21.3845 28.3971 21.3064 29.2393C21.2486 29.8627 21.2242 30.4348 21.2245 30.9571M25.2058 31.3936C25.2573 30.0785 24.9206 28.8073 24.7412 28.1578C24.6807 27.9385 24.9272 28.3695 25.2831 28.9237M25.2058 31.3936C25.7787 31.9963 26.3213 32.5498 26.787 32.9652M25.2831 28.9237C25.4759 29.2238 25.7008 29.5601 25.9263 29.8486M25.2831 28.9237C25.3808 29.358 25.4802 29.6587 25.58 29.7392C25.6996 29.8356 25.8151 29.8675 25.9263 29.8486M25.9263 29.8486C26.0266 29.9769 26.127 30.0958 26.2248 30.1978C26.3981 30.3786 26.6021 30.5222 26.8099 30.611M25.9263 29.8486C26.297 29.7857 26.6196 29.1595 26.8835 28.4819M26.8099 30.611C27.0366 30.7081 27.2679 30.74 27.4685 30.6844C27.7157 30.6158 27.9204 30.4834 28.09 30.3016M26.8099 30.611C26.7963 31.2405 26.7894 31.8886 26.7896 32.5558C26.7896 32.6943 26.7887 32.8308 26.787 32.9652M26.8099 30.611C26.8257 29.8762 26.8505 29.1666 26.8835 28.4819M28.09 30.3016C29.2159 29.0953 28.7986 25.7117 29.0018 24.3305C29.6799 19.7206 28.6561 32.1282 28.2561 33.4885C28.2114 33.6402 28.1235 33.7114 27.9991 33.7154M28.09 30.3016C28.0708 29.4329 28.0207 28.5111 27.9323 27.5532C27.8005 26.1257 27.5657 26.5703 27.3912 27.0386C27.2617 27.3861 27.0907 27.9498 26.8835 28.4819M28.09 30.3016C28.1181 31.5702 28.0802 32.7257 27.9991 33.7154M27.9991 33.7154C27.736 33.7239 27.31 33.4318 26.787 32.9652M27.9991 33.7154C27.8616 35.394 27.5999 36.5958 27.3253 37.0643C27.0253 37.5763 26.7568 38.2086 26.2637 38.4698C24.1873 39.5697 20.2257 35.2922 16.6084 31.063M26.787 32.9652C26.7408 36.4857 26.0968 38.5628 25.9802 38.0681C25.654 36.6845 24.0122 35.2197 23.1696 33.1457C22.8479 32.3537 22.0438 31.6811 21.2245 30.9571M21.2245 30.9571C21.226 33.6746 21.8933 35.0457 21.9756 35.2766C22.4344 36.5635 20.8579 34.8409 18.9113 32.692M21.2245 30.9571C20.228 30.0765 19.2092 29.12 19.0088 27.7804C18.9998 27.7202 19.0966 27.7171 19.2124 27.7342M18.9113 32.692C17.8026 31.468 16.5739 30.1057 15.5329 29.0823M18.9113 32.692C19.3639 32.9985 19.4518 32.9415 18.9478 32.2985C18.3606 31.5493 16.7564 30.134 15.5329 29.0823M18.9113 32.692C18.4095 32.3522 17.4592 31.5654 16.3704 30.6352M15.5329 29.0823C15.2653 28.8193 15.0101 28.5786 14.7725 28.3685M15.5329 29.0823C15.3407 28.9172 15.158 28.7611 14.9901 28.6179M14.7725 28.3685C14.5586 28.1792 14.3589 28.0146 14.1773 27.8807C13.7286 27.5499 14.1926 27.9378 14.9901 28.6179M14.7725 28.3685C14.2789 27.8201 13.6647 27.253 12.8797 26.6995M14.7725 28.3685C14.8478 28.4521 14.9203 28.5352 14.9901 28.6179M14.9901 28.6179C15.6197 29.3627 16.0362 30.063 16.3704 30.6352M16.3704 30.6352C16.2172 30.5043 16.0612 30.3706 15.9033 30.2349M16.3704 30.6352C16.4102 30.7035 16.4489 30.7699 16.4867 30.8344C16.5405 30.9263 16.5808 31.0022 16.6084 31.063M15.9033 30.2349C15.0062 29.4634 14.0483 28.6275 13.1881 27.8824M15.9033 30.2349C16.1365 30.5097 16.3717 30.7862 16.6084 31.063M15.9033 30.2349C14.8308 28.9705 13.8026 27.7427 12.8797 26.6995M13.1881 27.8824C12.1163 26.954 11.1962 26.1665 10.7347 25.8205C10.2766 25.477 10.6952 25.4545 11.3108 25.7491M13.1881 27.8824C15.1898 30.0934 16.9681 31.8537 16.6084 31.063M13.1881 27.8824C12.5648 27.1939 11.9197 26.4616 11.3108 25.7491M11.3108 25.7491C11.3621 25.7736 11.4148 25.8004 11.4685 25.8294C11.9927 26.1123 12.4606 26.404 12.8797 26.6995M11.3108 25.7491C11.1404 25.5497 10.9729 25.3519 10.8095 25.1571M12.8797 26.6995C12.3651 26.1178 11.8832 25.5935 11.4446 25.1523M10.8095 25.1571C10.4029 24.6723 10.0218 24.2057 9.6854 23.7787M10.8095 25.1571C11.035 25.1825 11.2481 25.1827 11.4446 25.1523M10.8095 25.1571C10.5202 25.1244 10.2105 25.0502 9.88908 24.9457M9.6854 23.7787C9.22746 23.1973 8.85262 22.6892 8.61007 22.3083C8.23504 21.7193 8.00159 21.0089 7.94515 20.8996C7.77782 20.5756 8.54511 21.9832 8.93175 22.3576M9.6854 23.7787C9.71163 23.9041 9.73797 24.0306 9.76443 24.1582C9.82315 24.4412 9.86443 24.7047 9.88908 24.9457M9.6854 23.7787C9.64303 23.5762 9.60098 23.3764 9.55924 23.1795M8.93175 22.3576C8.96124 22.3862 8.98852 22.4087 9.01299 22.424C9.62925 22.8094 9.03151 21.9667 8.27684 21.1433M8.93175 22.3576C9.11517 22.6244 9.32583 22.8992 9.55924 23.1795M8.93175 22.3576C8.6368 21.9286 8.41228 21.5204 8.27684 21.1433M8.27684 21.1433C7.70401 20.5182 7.04075 19.9042 6.74935 19.8468C6.60366 19.8181 6.50384 19.8424 6.44068 19.906M8.27684 21.1433C8.20084 20.9316 8.15288 20.7298 8.13628 20.5397C8.09863 20.1084 8.40997 19.8117 8.82584 19.8446M6.44068 19.906C6.05497 20.295 7.03668 22.1564 7.29314 22.4364C7.48731 22.6484 7.08438 21.5132 6.44068 19.906ZM6.44068 19.906C6.38858 19.776 6.33491 19.6428 6.27986 19.507M6.27986 19.507C5.85085 18.4491 5.33757 17.2316 4.82936 16.074C4.42839 15.1607 4.31052 15.7901 4.4613 16.5076C4.79468 18.0942 5.62558 19.3137 6.24984 19.4984C6.2599 19.5013 6.26991 19.5042 6.27986 19.507ZM6.27986 19.507C8.30158 20.0779 7.91452 17.1835 7.73181 15.2513M7.73181 15.2513C7.66158 14.5087 7.62155 13.9082 7.76005 13.7013C8.00137 13.3407 8.61935 13.3919 9.30308 14.0666C9.98681 14.7413 10.8205 16.1333 11.1495 16.6305C11.4785 17.1278 11.2777 16.688 11.3904 16.4967C11.5032 16.3054 11.9357 16.3759 12.3434 16.6237C13.3481 17.2343 14.1623 18.3899 14.8315 19.6662M7.73181 15.2513C8.03405 16.4815 8.40474 17.9978 8.82584 19.8446M7.73181 15.2513C7.05357 12.4908 6.72001 11.1711 6.93505 10.7915C7.99409 8.92234 11.7452 12.4912 14.8925 15.2845C16.0552 16.3163 16.964 18.8521 17.627 21.5345M14.8315 19.6662C15.4015 20.753 15.8663 21.9274 16.254 22.9272M14.8315 19.6662C14.8783 19.284 15.0124 19.0615 15.1893 19.4204C15.709 20.4747 16.2444 21.9348 16.6204 23.0904M14.8315 19.6662C14.8053 19.8805 14.8065 20.1452 14.843 20.3855C14.979 21.2817 15.3543 22.0946 15.8341 22.8043M16.254 22.9272C16.3651 23.2138 16.4699 23.486 16.5691 23.7377M16.254 22.9272C16.3644 22.9739 16.4893 23.0309 16.6204 23.0904M16.254 22.9272C16.1984 22.9037 16.1465 22.8828 16.0994 22.8656C15.9966 22.828 15.9088 22.8085 15.8341 22.8043M16.5691 23.7377C16.7483 24.1928 16.909 24.5809 17.0551 24.8654C17.1895 25.1272 17.1259 24.7798 16.9387 24.1253M16.5691 23.7377C16.3102 23.451 16.0605 23.1391 15.8341 22.8043M16.5691 23.7377C16.6908 23.8725 16.8145 24.0018 16.9387 24.1253M16.9387 24.1253C16.8551 23.8327 16.7467 23.4787 16.6204 23.0904M16.9387 24.1253C17.7912 24.9725 18.6692 25.5478 19.0974 25.7804C19.3103 25.896 19.4558 25.9263 19.5443 25.8865M16.6204 23.0904C17.1147 23.3146 17.6968 23.574 17.9168 23.4461M15.8341 22.8043C15.4583 22.7829 15.4127 23.1464 15.447 23.5238C15.5314 24.4534 16.2851 25.5356 17.248 26.6154C17.875 27.3186 18.6922 27.5976 19.2124 27.7342M19.5443 25.8865C20.0186 25.6732 18.8541 23.4457 17.627 21.5345M19.5443 25.8865C19.0211 25.1573 18.4555 24.3034 17.9168 23.4461M17.627 21.5345C16.968 20.5081 16.291 19.5729 15.84 19.0898C14.732 17.9029 16.1863 20.6925 17.9168 23.4461M17.627 21.5345C17.7588 22.0677 17.8809 22.6067 17.9933 23.1409C18.0278 23.3051 17.9955 23.4004 17.9168 23.4461M11.4446 25.1523C11.34 25.047 11.2378 24.9465 11.1383 24.8511C10.5484 24.2855 10.0112 23.7222 9.55924 23.1795M11.4446 25.1523C12.1779 25.0387 12.68 24.4989 12.7351 23.2557C12.7549 22.8086 11.8706 20.7937 9.02918 19.8854C8.95944 19.8632 8.89134 19.8498 8.82584 19.8446M9.55924 23.1795C9.30166 21.9641 9.05621 20.8549 8.82584 19.8446M9.88908 24.9457C7.59311 24.1991 4.69988 21.9058 4.4031 22.1666C3.5043 22.9562 6.6383 25.195 9.0244 26.4919C9.69167 26.8546 10.018 26.2068 9.88908 24.9457ZM19.2124 27.7342C19.3579 27.7724 19.4802 27.7995 19.5686 27.8216C19.5954 27.8283 19.3833 27.7594 19.2124 27.7342ZM189.783 9.04612C189.783 8.7093 189.925 7.85822 190.318 6.6288C190.993 4.51616 194.084 4.3003 195.905 4.37106C198.138 4.4578 197.774 8.37533 197.396 13.639C196.871 20.9344 190.537 25.8135 188.004 29.8914C187.315 30.9994 187.001 32.0513 186.705 32.4579C185.775 33.7398 186.199 29.028 186.998 23.5582M186.998 23.5582C187.453 20.4399 188.03 17.0752 188.547 14.4343C188.656 13.8761 189.467 15.3034 190.154 16.9292M186.998 23.5582C187.427 23.5228 187.865 23.2726 188.242 22.5434C188.994 21.0884 189.51 18.9679 190.154 16.9292M186.998 23.5582C186.92 23.5646 186.843 23.564 186.767 23.558C185.871 23.4872 185.123 22.7388 184.488 21.6705M190.154 16.9292C190.384 17.4752 190.601 18.0435 190.773 18.5666C191.232 19.965 191.884 18.2995 192.483 16.1661M190.154 16.9292C190.464 15.9457 190.805 14.9812 191.216 14.1197C191.587 13.3442 191.917 13.8065 192.067 14.2999C192.18 14.6736 192.319 15.4392 192.483 16.1661M192.483 16.1661C193.124 13.8798 193.704 11.0564 193.917 10.8912C195.977 9.29123 193.958 16.7658 193.4 17.6941C193.039 18.2946 192.732 17.2753 192.483 16.1661ZM184.488 21.6705C183.52 20.0424 182.816 17.6713 182.256 15.8245C181.966 14.8689 181.839 15.1161 181.807 16.0049M184.488 21.6705C184.369 22.2389 184.203 22.2874 183.971 21.5455C183.347 19.5483 182.78 17.6441 181.807 16.0049M184.488 21.6705C184.726 20.5358 184.777 17.3291 184.796 14.2061M181.807 16.0049C181.729 18.2026 182.232 24.3231 182.298 25.8799C182.305 26.0424 181.485 21.456 180.354 15.577C180.016 13.818 180.717 14.4599 181.134 15.0048C181.379 15.3253 181.602 15.6592 181.807 16.0049ZM184.796 14.2061C184.812 11.5433 184.804 8.94141 184.868 7.73623C184.893 7.25124 185.889 11.7868 186.394 16.0764C186.544 17.3558 186.001 16.8472 185.409 15.5528C185.19 15.0734 184.986 14.6252 184.796 14.2061ZM184.796 14.2061C182.719 9.61818 182.311 8.50495 181.635 7.94424C181.262 7.6352 180.779 7.48168 180.494 7.77112C179.697 8.57835 180 12.2272 179.972 15.624C179.949 18.2646 179.075 11.6905 178.449 7.04989C178.275 5.76167 178.301 5.22569 178.559 5.0106C178.817 4.79552 179.332 4.91413 179.816 5.10308C180.301 5.29203 180.739 5.54773 181.19 6.0248" stroke="#FF0000" stroke-width="4" stroke-linecap="round"/>
</svg>
