<svg width="269" height="36" viewBox="0 0 269 36" fill="none" xmlns="http://www.w3.org/2000/svg">
<path d="M2.44141 6.63602C4.31514 6.63602 7.33015 6.39097 14.4448 6.0791C23.1942 5.69558 29.607 5.04373 33.8033 4.89826C50.1386 4.33195 56.444 5.90822 66.018 6.11352C73.4023 6.27186 81.9199 6.68529 85.8526 6.8714C91.5611 7.14154 100.713 6.9871 105.436 6.6814C106.583 6.60715 107.701 6.5432 117.399 6.40089C127.097 6.25857 145.342 6.0446 156.209 5.8786C170.015 5.66771 173.773 5.36357 177.726 5.10249C195.418 3.93385 202.933 4.0745 212.139 3.89248C225.726 3.62386 235.201 3.48768 237.046 3.30203C243.948 2.60734 254.447 3.03619 258.986 3.70278C262.514 4.22101 265.708 4.66353 266.241 4.96563C270.044 7.12415 245.047 7.66536 234.131 8.67064C232.31 8.83833 222.553 9.09193 207.695 9.37454C194.343 9.62852 185.019 10.2197 173.251 10.2298C153.372 10.2469 139.988 9.73713 137.868 9.99111C133.685 10.4922 126.322 10.8122 116.139 11.4639C109.041 11.9183 104.593 12.271 101.44 12.4339C99.6721 12.5253 92.4776 12.907 79.5893 13.1734C66.17 13.4508 55.6715 13.5991 49.9063 13.8221C43.2952 14.0777 36.4805 14.3803 31.3011 14.5281C25.7718 14.6859 22.2946 15.0946 19.0916 15.2264C18.1941 15.2633 17.1827 15.3279 17.0096 15.4158C14.0287 16.9298 26.0867 16.1143 31.887 16.2772C33.2779 16.3162 34.1895 16.4719 42.5385 16.6751C50.8875 16.8782 66.6453 17.1507 75.1442 17.2431C84.4052 17.3437 87.5323 17.0289 100.838 16.757C111.802 16.533 131.321 16.391 141.756 16.237C152.957 16.0717 160.293 15.8881 176.066 15.792C185.287 15.7359 196.976 15.504 205.657 15.3493C214.337 15.1946 219.655 15.083 221.92 15.31C224.185 15.5369 223.236 16.1056 221.281 16.6405C219.326 17.1753 216.393 17.659 208.959 17.9082C201.525 18.1574 189.68 18.1574 181.627 18.1094C164.892 18.0096 161.067 18.2017 154.792 18.4195C149.691 18.5965 143.343 18.8852 131.899 19.1107C118.633 19.3722 112.95 20.0444 99.7798 21.2971C97.2131 21.5412 96.4576 21.6865 96.4662 21.8754C96.6799 26.5746 109.572 23.738 113.563 24.0439C114.755 24.1352 116.389 24.1065 116.893 24.3223C118.852 25.1623 113.029 26.5898 112.356 27.2762C109.945 29.7362 121.19 28.7163 123.942 29.2464C124.191 29.2945 123.391 29.8742 123.414 30.1333C123.485 30.9415 126.626 30.6375 129.199 30.9923C130.06 31.111 129.743 32.0567 129.952 32.547C130.161 33.0374 130.835 33.287 131.452 33.1728C132.069 33.0587 132.608 32.5731 132.833 31.9508C133.058 31.3285 132.952 30.5842 132.52 29.964C130.674 27.3123 126.587 27.18 123.42 25.9921C121.939 25.4365 124.477 22.6777 125.936 21.2968C126.83 20.4513 128.643 20.0989 128.916 19.707C129.534 18.819 124.556 18.8695 122.322 18.8961C115.604 18.9758 134.215 18.2627 138.528 17.9177C141.521 17.6783 147.926 17.2893 155.623 16.3075C166.875 14.8722 183.845 12.0259 188.89 11.0439C192.209 10.3545 195.721 9.7657 202.208 9.59681C203.671 9.54286 204.416 9.43496 207.044 8.90816" stroke="#FF0000" stroke-width="4" stroke-linecap="round"/>
</svg>
