<?xml version="1.0" encoding="utf-8"?><!-- Uploaded to: SVG Repo, www.svgrepo.com, Generator: SVG Repo Mixer Tools -->
<svg fill="#000000" width="800px" height="800px" viewBox="0 0 24 24" id="sign-in-double-arrow-2" data-name="Flat Color" xmlns="http://www.w3.org/2000/svg" class="icon flat-color"><path id="secondary" d="M10.71,14.29a1,1,0,0,1,0,1.42,1,1,0,0,1-1.42,0l-3-3a1,1,0,0,1,0-1.42l3-3a1,1,0,0,1,1.42,1.42L8.41,12ZM21,11H14.41l1.3-1.29a1,1,0,0,0-1.42-1.42l-3,3a1,1,0,0,0,0,1.42l3,3a1,1,0,0,0,1.42,0,1,1,0,0,0,0-1.42L14.41,13H21a1,1,0,0,0,0-2Z" style="fill: rgb(44, 169, 188);"></path><path id="primary" d="M7,21H4a2,2,0,0,1-2-2V5A2,2,0,0,1,4,3H7A1,1,0,0,1,7,5H4V19H7a1,1,0,0,1,0,2Z" style="fill: rgb(0, 0, 0);"></path></svg>