<svg width="256" height="256" version="1.1" xmlns="http://www.w3.org/2000/svg" desc="Created with imagetracer.js version 1.2.6" ><path fill="rgb(65,105,128)" stroke="rgb(65,105,128)" stroke-width="1" opacity="1" d="M 102.5 42 L 104 59.5 L 107 71.5 L 106 74 L 108 74.5 Q 105.8 75.8 107 80.5 L 112 101.5 L 112 106.5 L 111 106.5 L 105 83.5 L 103 66.5 L 102 65.5 L 102.5 42 Z " /><path fill="rgb(65,105,128)" stroke="rgb(65,105,128)" stroke-width="1" opacity="1" d="M 158.5 44 L 159 64.5 L 158 65.5 L 158 72.5 L 156 82.5 L 149.5 106 L 148 103.5 L 150 99.5 L 154 74.5 L 153.5 73 L 155 73.5 L 154 69.5 L 157 59.5 L 158.5 44 Z " /><path fill="rgb(65,105,128)" stroke="rgb(65,105,128)" stroke-width="1" opacity="1" d="M 27.5 104 L 26.5 106 L 27.5 104 Z " /><path fill="rgb(65,105,128)" stroke="rgb(65,105,128)" stroke-width="1" opacity="1" d="M 110.5 110 L 112.5 113 L 110.5 110 Z " /><path fill="rgb(65,105,128)" stroke="rgb(65,105,128)" stroke-width="1" opacity="1" d="M 24.5 117 L 25 119.5 L 24 119.5 L 24.5 117 Z " /><path fill="rgb(65,105,128)" stroke="rgb(65,105,128)" stroke-width="1" opacity="1" d="M 139.5 120 L 135.5 125 L 139.5 120 Z " /><path fill="rgb(65,105,128)" stroke="rgb(65,105,128)" stroke-width="1" opacity="1" d="M 127.5 130 L 126.5 132 L 127.5 130 Z " /><path fill="rgb(65,105,128)" stroke="rgb(65,105,128)" stroke-width="1" opacity="1" d="M 132.5 130 L 133.5 132 L 132.5 130 Z " /><path fill="rgb(65,105,128)" stroke="rgb(65,105,128)" stroke-width="1" opacity="1" d="M 108.5 132 L 111 132.5 L 108.5 133 L 108.5 132 Z " /><path fill="rgb(65,105,128)" stroke="rgb(65,105,128)" stroke-width="1" opacity="1" d="M 55.5 133 L 59 133.5 L 55.5 134 L 55.5 133 Z " /><path fill="rgb(65,105,128)" stroke="rgb(65,105,128)" stroke-width="1" opacity="1" d="M 94.5 133 L 98 133.5 L 94.5 134 L 94.5 133 Z " /><path fill="rgb(65,105,128)" stroke="rgb(65,105,128)" stroke-width="1" opacity="1" d="M 158.5 133 L 162 133.5 L 158.5 134 L 158.5 133 Z " /><path fill="rgb(65,105,128)" stroke="rgb(65,105,128)" stroke-width="1" opacity="1" d="M 173.5 134 L 180 134.5 L 173.5 135 L 173.5 134 Z " /><path fill="rgb(65,105,128)" stroke="rgb(65,105,128)" stroke-width="1" opacity="1" d="M 194.5 134 L 200 134.5 L 194.5 135 L 194.5 134 Z " /><path fill="rgb(65,105,128)" stroke="rgb(65,105,128)" stroke-width="1" opacity="1" d="M 69.5 170 L 65.5 175 L 69.5 170 Z " /><path fill="rgb(65,105,128)" stroke="rgb(65,105,128)" stroke-width="1" opacity="1" d="M 193.5 213 L 192.5 215 L 193.5 213 Z " /><path fill="rgb(65,105,128)" stroke="rgb(65,105,128)" stroke-width="1" opacity="1" d="M 93.5 225 L 96 225.5 L 93.5 226 L 93.5 225 Z " /><path fill="rgb(206,209,211)" stroke="rgb(206,209,211)" stroke-width="1" opacity="1" d="M 156.5 28 L 157.5 30 L 156.5 28 Z " /><path fill="rgb(206,209,211)" stroke="rgb(206,209,211)" stroke-width="1" opacity="1" d="M 107.5 29 L 109 29.5 L 107 30.5 L 109 31 L 109 39.5 L 110 40.5 L 110 65.5 Q 112.5 67 111 72.5 L 115 91.5 L 120 105.5 L 119 105.5 L 110 81.5 L 109 67.5 L 108 66.5 L 109 61.5 L 108 58.5 L 106 37.5 L 105 36.5 L 105 34.5 Q 103.1 29.1 106.5 30 L 107.5 29 Z " /><path fill="rgb(206,209,211)" stroke="rgb(206,209,211)" stroke-width="1" opacity="1" d="M 153.5 29 L 156 30.5 L 155 31.5 L 155 40.5 L 152 55.5 L 152 57.5 L 151.5 62 L 151 53.5 L 152 52.5 L 152 31 L 154 30.5 L 153.5 29 Z " /><path fill="rgb(206,209,211)" stroke="rgb(206,209,211)" stroke-width="1" opacity="1" d="M 114.5 30 L 117 30.5 L 114.5 31 L 114.5 30 Z " /><path fill="rgb(206,209,211)" stroke="rgb(206,209,211)" stroke-width="1" opacity="1" d="M 145.5 30 L 148 30.5 L 145.5 31 L 145.5 30 Z " /><path fill="rgb(206,209,211)" stroke="rgb(206,209,211)" stroke-width="1" opacity="1" d="M 150 65 L 152 65.5 L 151 67.5 L 152 72.5 L 151 77.5 L 148 89.5 L 139.5 109 L 139 107.5 L 147 85.5 L 150 71.5 L 150 65 Z " /><path fill="rgb(206,209,211)" stroke="rgb(206,209,211)" stroke-width="1" opacity="1" d="M 104.5 106 L 105.5 108 L 104.5 106 Z " /><path fill="rgb(206,209,211)" stroke="rgb(206,209,211)" stroke-width="1" opacity="1" d="M 155.5 107 L 154.5 109 L 155.5 107 Z " /><path fill="rgb(206,209,211)" stroke="rgb(206,209,211)" stroke-width="1" opacity="1" d="M 121.5 110 L 123 113.5 L 122 113.5 L 121.5 110 Z " /><path fill="rgb(206,209,211)" stroke="rgb(206,209,211)" stroke-width="1" opacity="1" d="M 138.5 110 L 139 111.5 L 137.5 114 L 137 112.5 L 138.5 110 Z " /><path fill="rgb(206,209,211)" stroke="rgb(206,209,211)" stroke-width="1" opacity="1" d="M 33.5 111 L 37 112.5 L 34.5 113 L 33.5 111 Z " /><path fill="rgb(206,209,211)" stroke="rgb(206,209,211)" stroke-width="1" opacity="1" d="M 222.5 111 L 225 111.5 L 222.5 112 L 222.5 111 Z " /><path fill="rgb(206,209,211)" stroke="rgb(206,209,211)" stroke-width="1" opacity="1" d="M 112.5 113 L 114.5 116 L 112.5 113 Z " /><path fill="rgb(206,209,211)" stroke="rgb(206,209,211)" stroke-width="1" opacity="1" d="M 227.5 114 L 226.5 116 L 227.5 114 Z " /><path fill="rgb(206,209,211)" stroke="rgb(206,209,211)" stroke-width="1" opacity="1" d="M 61.5 119 L 64 119.5 L 61.5 120 L 61.5 119 Z " /><path fill="rgb(206,209,211)" stroke="rgb(206,209,211)" stroke-width="1" opacity="1" d="M 188.5 120 L 191 120.5 L 188.5 121 L 188.5 120 Z " /><path fill="rgb(206,209,211)" stroke="rgb(206,209,211)" stroke-width="1" opacity="1" d="M 139.5 121 L 136.5 125 L 139.5 121 Z " /><path fill="rgb(206,209,211)" stroke="rgb(206,209,211)" stroke-width="1" opacity="1" d="M 183.5 121 L 186 121.5 L 183.5 122 L 183.5 121 Z " /><path fill="rgb(206,209,211)" stroke="rgb(206,209,211)" stroke-width="1" opacity="1" d="M 76.5 122 L 79 122.5 L 76.5 123 L 76.5 122 Z " /><path fill="rgb(206,209,211)" stroke="rgb(206,209,211)" stroke-width="1" opacity="1" d="M 121.5 122 L 124.5 126 L 121.5 122 Z " /><path fill="rgb(206,209,211)" stroke="rgb(206,209,211)" stroke-width="1" opacity="1" d="M 178.5 122 L 181 122.5 L 178.5 123 L 178.5 122 Z " /><path fill="rgb(206,209,211)" stroke="rgb(206,209,211)" stroke-width="1" opacity="1" d="M 81.5 123 L 85 123.5 L 81.5 124 L 81.5 123 Z " /><path fill="rgb(206,209,211)" stroke="rgb(206,209,211)" stroke-width="1" opacity="1" d="M 173.5 123 L 176 123.5 L 173.5 124 L 173.5 123 Z " /><path fill="rgb(206,209,211)" stroke="rgb(206,209,211)" stroke-width="1" opacity="1" d="M 87.5 124 L 91 124.5 L 87.5 125 L 87.5 124 Z " /><path fill="rgb(206,209,211)" stroke="rgb(206,209,211)" stroke-width="1" opacity="1" d="M 167.5 124 L 170 124.5 L 167.5 125 L 167.5 124 Z " /><path fill="rgb(206,209,211)" stroke="rgb(206,209,211)" stroke-width="1" opacity="1" d="M 94.5 125 L 97 125.5 L 94.5 126 L 94.5 125 Z " /><path fill="rgb(206,209,211)" stroke="rgb(206,209,211)" stroke-width="1" opacity="1" d="M 160.5 125 L 164 125.5 L 160.5 126 L 160.5 125 Z " /><path fill="rgb(206,209,211)" stroke="rgb(206,209,211)" stroke-width="1" opacity="1" d="M 100.5 126 L 104 126.5 L 100.5 127 L 100.5 126 Z " /><path fill="rgb(206,209,211)" stroke="rgb(206,209,211)" stroke-width="1" opacity="1" d="M 154.5 126 L 158 126.5 L 154.5 127 L 154.5 126 Z " /><path fill="rgb(206,209,211)" stroke="rgb(206,209,211)" stroke-width="1" opacity="1" d="M 107.5 127 L 112 127.5 L 107.5 128 L 107.5 127 Z " /><path fill="rgb(206,209,211)" stroke="rgb(206,209,211)" stroke-width="1" opacity="1" d="M 147.5 127 L 151 127.5 L 147.5 128 L 147.5 127 Z " /><path fill="rgb(206,209,211)" stroke="rgb(206,209,211)" stroke-width="1" opacity="1" d="M 115.5 128 L 120 128.5 L 115.5 129 L 115.5 128 Z " /><path fill="rgb(206,209,211)" stroke="rgb(206,209,211)" stroke-width="1" opacity="1" d="M 139.5 128 L 144 128.5 L 139.5 129 L 139.5 128 Z " /><path fill="rgb(206,209,211)" stroke="rgb(206,209,211)" stroke-width="1" opacity="1" d="M 123.5 129 L 128 129.5 L 123.5 130 L 123.5 129 Z " /><path fill="rgb(206,209,211)" stroke="rgb(206,209,211)" stroke-width="1" opacity="1" d="M 132.5 129 L 136 129.5 L 132.5 130 L 132.5 129 Z " /><path fill="rgb(206,209,211)" stroke="rgb(206,209,211)" stroke-width="1" opacity="1" d="M 128.5 133 L 129 134.5 L 126.5 140 L 126 138.5 L 128.5 133 Z " /><path fill="rgb(206,209,211)" stroke="rgb(206,209,211)" stroke-width="1" opacity="1" d="M 124.5 144 L 125 145.5 Q 113.3 177.3 98 205.5 L 85.5 224 L 69 216 L 95 175.5 L 114 150 Q 116.7 151.1 116 148.5 L 118.5 148 L 121.5 147 L 123 147.5 L 124.5 144 Z M 122 148 L 119 149 L 118 151 Q 121 152 122 150 L 122 148 Z " /><path fill="rgb(206,209,211)" stroke="rgb(206,209,211)" stroke-width="1" opacity="1" d="M 134.5 144 L 136.5 148 L 139 148.5 L 135 149 L 134.5 144 Z " /><path fill="rgb(206,209,211)" stroke="rgb(206,209,211)" stroke-width="1" opacity="1" d="M 155.5 145 L 157 146.5 Q 153.3 148.3 156.5 150 L 158.5 147 L 160 150 L 163 150.5 L 161 151.5 L 164.5 153 L 165.5 152 L 168.5 155 Q 186.4 167.1 200 183.5 L 207 194.5 L 205 200 L 199 195.5 L 168.5 162 L 159 153.5 Q 159.8 151.3 157.5 152 L 153 148.5 L 156 146.5 L 155.5 145 Z " /><path fill="rgb(206,209,211)" stroke="rgb(206,209,211)" stroke-width="1" opacity="1" d="M 101.5 146 L 101.5 148 L 104.5 147 L 105 149.5 L 102.5 152 L 100 152.5 L 100.5 154 L 68 185.5 L 55.5 201 Q 51.4 199.1 52 192.5 Q 59.2 180.2 69.5 171 L 88.5 155 L 95 152.5 Q 92.8 151.3 95.5 150 L 97.5 151 L 98.5 148 L 100 148.5 L 101.5 146 Z M 102 149 L 102 150 L 104 150 L 102 149 Z " /><path fill="rgb(206,209,211)" stroke="rgb(206,209,211)" stroke-width="1" opacity="1" d="M 140.5 148 L 143 148.5 L 140.5 149 L 140.5 148 Z " /><path fill="rgb(206,209,211)" stroke="rgb(206,209,211)" stroke-width="1" opacity="1" d="M 136 150 Q 140.1 148.3 139 152.5 L 140 152.5 Q 138.8 148.8 142.5 150 L 145 151 L 190 215.5 Q 183.9 221.9 173.5 224 Q 148.9 192.4 136 150 Z " /><path fill="rgb(95,155,180)" stroke="rgb(95,155,180)" stroke-width="1" opacity="1" d="M 0 0 L 255.5 0 L 256 0.5 L 256 40 L 252.5 41 L 249.5 40 L 246.5 41 L 241.5 39 L 236.5 41 L 234.5 40 L 231.5 41 L 228.5 40 L 226.5 41 L 223.5 40 L 221.5 41 Q 220.2 38.8 215.5 40 L 212.5 41 L 209.5 40 L 207.5 41 L 205.5 40 L 203.5 41 L 201.5 40 L 199.5 41 L 196.5 39 L 190.5 41 L 186.5 40 L 184.5 41 L 182.5 40 L 180.5 41 L 178.5 41 L 174.5 39 L 169.5 40 L 161.5 30 L 159.5 29 L 158.5 32 L 157 26.5 Q 159.3 25.3 156.5 24 L 146.5 22 L 115.5 22 Q 114 24.5 108.5 23 L 103 25.5 L 103 27.5 L 102.5 30 L 100.5 30 L 95 34.5 L 91.5 40 L 86.5 41 L 83.5 39 L 77.5 41 L 73.5 40 L 71.5 41 L 69.5 40 L 67.5 41 L 65.5 41 L 62.5 40 L 60.5 40 L 54.5 41 L 50.5 40 L 48.5 41 L 46.5 40 L 44.5 40 L 40.5 41 Q 39.3 38.8 34.5 40 L 31.5 41 L 27.5 40 L 25.5 40 L 22.5 41 L 20.5 40 L 18.5 41 L 15.5 39 L 9.5 41 L 6.5 40 L 3.5 41 L 1.5 41 L 0 40.5 L 0 0 Z " /><path fill="rgb(95,155,180)" stroke="rgb(95,155,180)" stroke-width="1" opacity="1" d="M 118.5 23 L 143 23.5 L 118.5 24 L 118.5 23 Z " /><path fill="rgb(95,155,180)" stroke="rgb(95,155,180)" stroke-width="1" opacity="1" d="M 149.5 24 L 152 24.5 L 149.5 25 L 149.5 24 Z " /><path fill="rgb(95,155,180)" stroke="rgb(95,155,180)" stroke-width="1" opacity="1" d="M 224.5 83 Q 231.1 95.9 234 112.5 L 233 112.5 L 224.5 83 Z " /><path fill="rgb(95,155,180)" stroke="rgb(95,155,180)" stroke-width="1" opacity="1" d="M 34.5 85 L 35 86.5 L 26.5 112 L 26 110.5 L 34.5 85 Z " /><path fill="rgb(95,155,180)" stroke="rgb(95,155,180)" stroke-width="1" opacity="1" d="M 235.5 121 L 236 124.5 L 235 124.5 L 235.5 121 Z " /><path fill="rgb(82,139,168)" stroke="rgb(82,139,168)" stroke-width="1" opacity="1" d="M 115.5 22 L 118 23.5 L 116.5 24 L 115.5 22 Z " /><path fill="rgb(82,139,168)" stroke="rgb(82,139,168)" stroke-width="1" opacity="1" d="M 144.5 22 L 147 22.5 L 143.5 24 L 144.5 22 Z " /><path fill="rgb(82,139,168)" stroke="rgb(82,139,168)" stroke-width="1" opacity="1" d="M 108.5 23 L 109.5 25 L 108.5 23 Z " /><path fill="rgb(82,139,168)" stroke="rgb(82,139,168)" stroke-width="1" opacity="1" d="M 101.5 29 Q 104.3 30.4 103 35 Q 100.3 33.9 101 36.5 L 99 38.5 L 97 47.5 L 96 69.5 L 92.5 74 L 84.5 74 L 83.5 75 L 80.5 74 L 71.5 73 L 66.5 74 L 54.5 71 L 44.5 71 L 40.5 71 L 27.5 74 L 25.5 74 L 17.5 74 L 16.5 73 L 16 75 L 3.5 73 L 0 74 L 0 41.5 L 1.5 41 L 3.5 41 L 8.5 40 L 10.5 41 L 16.5 39 L 19.5 41 L 21.5 40 L 23.5 41 L 25.5 40 L 27.5 40 L 33.5 41 Q 34.8 38.8 39.5 40 L 42.5 41 L 44.5 40 L 46.5 40 L 49.5 41 L 53.5 40 L 55.5 41 L 61.5 39 L 65.5 41 L 67.5 41 L 70.5 40 L 72.5 41 L 76.5 40 L 78.5 41 L 83.5 39 L 86.5 41 L 93 38.5 L 99.5 30 L 101.5 29 Z " /><path fill="rgb(82,139,168)" stroke="rgb(82,139,168)" stroke-width="1" opacity="1" d="M 159.5 29 L 166 34.5 L 169.5 40 L 174.5 39 L 178.5 41 L 180.5 41 L 183.5 40 L 185.5 41 L 189.5 40 L 191.5 41 L 196.5 39 L 200.5 41 L 202.5 40 L 204.5 41 L 206.5 40 L 208.5 41 L 211.5 40 L 214.5 41 Q 215.8 38.8 220.5 40 L 222.5 41 L 225.5 40 L 227.5 41 L 229.5 41 L 232.5 40 L 234.5 40 L 236.5 41 L 242.5 39 L 246.5 41 L 249.5 40 L 253.5 41 L 256 40 L 256 73.5 L 253.5 74 L 251.5 74 L 243.5 74 L 242.5 73 L 241.5 75 L 240.5 74 L 230.5 74 L 226.5 72 L 224.5 73 L 223.5 72 L 212.5 71 L 211.5 72 L 198.5 73 L 194.5 75 L 184.5 73 L 183.5 74 L 175.5 74 L 173.5 74 Q 167.5 75.5 166 72.5 L 165 57.5 L 164 56.5 L 164 45.5 L 159.5 35 L 158.5 37 L 158 32.5 L 159.5 29 Z " /><path fill="rgb(59,112,146)" stroke="rgb(59,112,146)" stroke-width="1" opacity="1" d="M 120.5 22 L 141 22.5 L 120.5 23 L 120.5 22 Z " /><path fill="rgb(59,112,146)" stroke="rgb(59,112,146)" stroke-width="1" opacity="1" d="M 102.5 40 L 103 41.5 L 102 42.5 L 102 65.5 L 107 92.5 L 110 100.5 L 110 109 L 91 94.5 L 93.5 96 L 101.5 100 Q 105.3 98.8 104 92.5 L 101 76.5 L 100 52.5 L 101 51.5 L 101 42.5 L 102.5 40 Z " /><path fill="rgb(59,112,146)" stroke="rgb(59,112,146)" stroke-width="1" opacity="1" d="M 159.5 42 L 161 48.5 L 161 50.5 L 161 63.5 L 160 64.5 L 160 74.5 L 157 91.5 L 157 100 L 160.5 100 L 170.5 94 L 168.5 97 L 148.5 113 L 151 109.5 L 150 108.5 L 150 102.5 L 152 98.5 L 158 72.5 L 159 44.5 Q 156.8 43.3 159.5 42 Z " /><path fill="rgb(59,112,146)" stroke="rgb(59,112,146)" stroke-width="1" opacity="1" d="M 220.5 74 L 221.5 76 L 220.5 74 Z " /><path fill="rgb(59,112,146)" stroke="rgb(59,112,146)" stroke-width="1" opacity="1" d="M 222.5 77 L 226 82.5 L 224 81.5 L 222.5 77 Z " /><path fill="rgb(59,112,146)" stroke="rgb(59,112,146)" stroke-width="1" opacity="1" d="M 226.5 84 L 228 87.5 L 226 86.5 L 226.5 84 Z " /><path fill="rgb(59,112,146)" stroke="rgb(59,112,146)" stroke-width="1" opacity="1" d="M 29.5 94 L 30 95.5 L 28 100.5 L 28.5 102 Q 25.9 101.2 27 104.5 L 25 112.5 L 25.5 114 L 24 113.5 L 24 118.5 Q 18.5 126.2 18 138 L 15.5 139 L 13.5 139 L 10.5 138 L 8.5 138 L 3.5 139 L 0 138 L 0 107.5 L 1.5 106 L 8.5 105 Q 9.8 107.3 14.5 106 L 16.5 105 L 19.5 106 L 23 104.5 L 25 101.5 L 29.5 94 Z " /><path fill="rgb(59,112,146)" stroke="rgb(59,112,146)" stroke-width="1" opacity="1" d="M 231.5 97 L 237.5 105 L 240.5 106 L 242.5 105 L 245.5 106 L 248.5 107 L 249.5 106 L 256 106 L 256 137.5 L 253.5 138 L 249.5 138 L 246.5 139 L 243 138 L 236 114.5 L 234 112.5 L 235 110.5 Q 231.5 109 234 107.5 L 232 104.5 L 232 102.5 L 231.5 97 Z " /><path fill="rgb(59,112,146)" stroke="rgb(59,112,146)" stroke-width="1" opacity="1" d="M 113.5 113 L 114.5 115 L 113.5 113 Z " /><path fill="rgb(219,219,220)" stroke="rgb(219,219,220)" stroke-width="1" opacity="1" d="M 103.5 28 L 104.5 30 L 103.5 28 Z " /><path fill="rgb(219,219,220)" stroke="rgb(219,219,220)" stroke-width="1" opacity="1" d="M 109.5 31 L 110 39.5 L 109 39.5 L 109.5 31 Z " /><path fill="rgb(219,219,220)" stroke="rgb(219,219,220)" stroke-width="1" opacity="1" d="M 151.5 32 L 152 52.5 L 151 52.5 L 151.5 32 Z " /><path fill="rgb(219,219,220)" stroke="rgb(219,219,220)" stroke-width="1" opacity="1" d="M 150.5 62 L 151 64.5 L 150 64.5 L 150.5 62 Z " /><path fill="rgb(219,219,220)" stroke="rgb(219,219,220)" stroke-width="1" opacity="1" d="M 110.5 63 L 111 65.5 L 110 65.5 L 110.5 63 Z " /><path fill="rgb(219,219,220)" stroke="rgb(219,219,220)" stroke-width="1" opacity="1" d="M 149.5 69 L 150 71.5 L 149 71.5 L 149.5 69 Z " /><path fill="rgb(219,219,220)" stroke="rgb(219,219,220)" stroke-width="1" opacity="1" d="M 159.5 104 L 158.5 106 L 159.5 104 Z " /><path fill="rgb(219,219,220)" stroke="rgb(219,219,220)" stroke-width="1" opacity="1" d="M 106.5 108 L 121 121.5 L 124 125.5 L 121.5 124 L 103 111.5 L 107 109.5 L 106.5 108 Z " /><path fill="rgb(219,219,220)" stroke="rgb(219,219,220)" stroke-width="1" opacity="1" d="M 153.5 109 L 153.5 111 L 156.5 110 L 154.5 113 L 137.5 125 L 147.5 114 L 153.5 109 Z " /><path fill="rgb(219,219,220)" stroke="rgb(219,219,220)" stroke-width="1" opacity="1" d="M 37.5 110 L 42.5 111 L 44.5 111 L 51.5 110 L 54.5 111 L 56.5 110 L 58.5 111 L 63.5 110 L 65.5 110 L 73.5 111 L 76.5 110 L 79.5 111 Q 80.8 108.7 85.5 110 L 125.5 128 L 125.5 126 L 128.5 130 Q 127 126.5 125.5 129 L 104.5 127 L 103.5 126 L 73.5 122 L 51.5 117 L 35 111.5 L 37.5 110 Z " /><path fill="rgb(219,219,220)" stroke="rgb(219,219,220)" stroke-width="1" opacity="1" d="M 126.5 110 L 129 125.5 L 128 125.5 L 122 111.5 L 126.5 110 Z " /><path fill="rgb(219,219,220)" stroke="rgb(219,219,220)" stroke-width="1" opacity="1" d="M 133.5 110 L 138 111.5 L 131 128 L 129 127.5 L 131 124.5 L 132 113.5 L 133.5 110 Z " /><path fill="rgb(219,219,220)" stroke="rgb(219,219,220)" stroke-width="1" opacity="1" d="M 172.5 110 L 177.5 111 L 179.5 110 Q 181.3 112.7 187.5 111 L 189.5 110 L 193.5 111 L 198.5 110 L 200.5 111 L 202.5 111 L 209.5 110 L 214.5 111 L 220.5 110 L 221.5 112 L 192.5 120 L 172.5 124 L 133.5 129 L 133.5 128 L 135 127.5 Q 132.8 126.2 135.5 125 L 135.5 127 L 172.5 110 Z " /><path fill="rgb(219,219,220)" stroke="rgb(219,219,220)" stroke-width="1" opacity="1" d="M 126.5 132 L 129 132.5 L 125 143.5 L 120.5 151 L 116.5 152 L 118 149.5 L 116.5 148 L 115.5 150 L 115 148.5 L 119 145.5 L 118 144.5 L 122 140.5 L 127 133.5 L 126.5 132 Z M 119 148 L 119 149 L 121 149 L 119 148 Z " /><path fill="rgb(219,219,220)" stroke="rgb(219,219,220)" stroke-width="1" opacity="1" d="M 131.5 132 L 143 147.5 L 140 148.5 L 145 150.5 L 143.5 151 L 140 150 L 139.5 153 L 139 150 L 136 149.5 L 139 148.5 L 135 146.5 L 131 134.5 L 131.5 132 Z " /><path fill="rgb(219,219,220)" stroke="rgb(219,219,220)" stroke-width="1" opacity="1" d="M 133.5 132 L 134.5 134 L 133.5 132 Z " /><path fill="rgb(219,219,220)" stroke="rgb(219,219,220)" stroke-width="1" opacity="1" d="M 124.5 133 L 122.5 136 L 102.5 153 L 100.5 153 L 100.5 152 L 104 150.5 L 101 149.5 L 104 148.5 L 101 147.5 L 124.5 133 Z " /><path fill="rgb(219,219,220)" stroke="rgb(219,219,220)" stroke-width="1" opacity="1" d="M 136.5 134 L 158 147.5 L 157 150 L 159 150.5 L 157 151.5 L 159 152 L 163 157.5 L 155 150.5 L 155.5 147 L 152.5 149 L 139.5 138 L 136.5 134 Z " /><path fill="rgb(219,219,220)" stroke="rgb(219,219,220)" stroke-width="1" opacity="1" d="M 113.5 151 L 111.5 154 L 113.5 151 Z " /><path fill="rgb(219,219,220)" stroke="rgb(219,219,220)" stroke-width="1" opacity="1" d="M 161.5 151 L 165 152.5 L 163.5 152 Q 160.5 152.5 161.5 151 Z " /><path fill="rgb(219,219,220)" stroke="rgb(219,219,220)" stroke-width="1" opacity="1" d="M 145.5 152 L 147.5 155 L 145.5 152 Z " /><path fill="rgb(219,219,220)" stroke="rgb(219,219,220)" stroke-width="1" opacity="1" d="M 99.5 154 L 91.5 163 L 99.5 154 Z " /><path fill="rgb(219,219,220)" stroke="rgb(219,219,220)" stroke-width="1" opacity="1" d="M 110.5 155 L 108.5 158 L 110.5 155 Z " /><path fill="rgb(219,219,220)" stroke="rgb(219,219,220)" stroke-width="1" opacity="1" d="M 148.5 156 L 150.5 159 L 148.5 156 Z " /><path fill="rgb(219,219,220)" stroke="rgb(219,219,220)" stroke-width="1" opacity="1" d="M 106.5 160 L 105.5 162 L 106.5 160 Z " /><path fill="rgb(219,219,220)" stroke="rgb(219,219,220)" stroke-width="1" opacity="1" d="M 151.5 160 L 152.5 162 L 151.5 160 Z " /><path fill="rgb(219,219,220)" stroke="rgb(219,219,220)" stroke-width="1" opacity="1" d="M 168.5 162 L 178.5 173 L 168.5 162 Z " /><path fill="rgb(219,219,220)" stroke="rgb(219,219,220)" stroke-width="1" opacity="1" d="M 103.5 164 L 101.5 167 L 103.5 164 Z " /><path fill="rgb(219,219,220)" stroke="rgb(219,219,220)" stroke-width="1" opacity="1" d="M 154.5 164 L 155.5 166 L 154.5 164 Z " /><path fill="rgb(219,219,220)" stroke="rgb(219,219,220)" stroke-width="1" opacity="1" d="M 100.5 168 L 99.5 170 L 100.5 168 Z " /><path fill="rgb(219,219,220)" stroke="rgb(219,219,220)" stroke-width="1" opacity="1" d="M 157.5 168 L 158.5 170 L 157.5 168 Z " /><path fill="rgb(219,219,220)" stroke="rgb(219,219,220)" stroke-width="1" opacity="1" d="M 159.5 171 L 160.5 173 L 159.5 171 Z " /><path fill="rgb(219,219,220)" stroke="rgb(219,219,220)" stroke-width="1" opacity="1" d="M 97.5 172 L 96.5 174 L 97.5 172 Z " /><path fill="rgb(219,219,220)" stroke="rgb(219,219,220)" stroke-width="1" opacity="1" d="M 94.5 176 L 93.5 178 L 94.5 176 Z " /><path fill="rgb(219,219,220)" stroke="rgb(219,219,220)" stroke-width="1" opacity="1" d="M 164.5 178 L 165.5 180 L 164.5 178 Z " /><path fill="rgb(219,219,220)" stroke="rgb(219,219,220)" stroke-width="1" opacity="1" d="M 74.5 179 L 68.5 186 L 74.5 179 Z " /><path fill="rgb(219,219,220)" stroke="rgb(219,219,220)" stroke-width="1" opacity="1" d="M 92.5 179 L 91.5 181 L 92.5 179 Z " /><path fill="rgb(219,219,220)" stroke="rgb(219,219,220)" stroke-width="1" opacity="1" d="M 166.5 181 L 167.5 183 L 166.5 181 Z " /><path fill="rgb(219,219,220)" stroke="rgb(219,219,220)" stroke-width="1" opacity="1" d="M 186.5 181 L 191.5 187 L 186.5 181 Z " /><path fill="rgb(219,219,220)" stroke="rgb(219,219,220)" stroke-width="1" opacity="1" d="M 90.5 182 L 89.5 184 L 90.5 182 Z " /><path fill="rgb(219,219,220)" stroke="rgb(219,219,220)" stroke-width="1" opacity="1" d="M 168.5 184 L 169.5 186 L 168.5 184 Z " /><path fill="rgb(219,219,220)" stroke="rgb(219,219,220)" stroke-width="1" opacity="1" d="M 170.5 187 L 171.5 189 L 170.5 187 Z " /><path fill="rgb(219,219,220)" stroke="rgb(219,219,220)" stroke-width="1" opacity="1" d="M 64.5 190 L 61.5 194 L 64.5 190 Z " /><path fill="rgb(219,219,220)" stroke="rgb(219,219,220)" stroke-width="1" opacity="1" d="M 195.5 191 L 198.5 195 L 195.5 191 Z " /><path fill="rgb(219,219,220)" stroke="rgb(219,219,220)" stroke-width="1" opacity="1" d="M 58.5 197 L 56.5 200 L 58.5 197 Z " /><path fill="rgb(219,219,220)" stroke="rgb(219,219,220)" stroke-width="1" opacity="1" d="M 201.5 198 L 204 201.5 L 203 201.5 L 201.5 198 Z " /><path fill="rgb(219,219,220)" stroke="rgb(219,219,220)" stroke-width="1" opacity="1" d="M 182.5 205 L 183.5 207 L 182.5 205 Z " /><path fill="rgb(219,219,220)" stroke="rgb(219,219,220)" stroke-width="1" opacity="1" d="M 73.5 208 L 72.5 210 L 73.5 208 Z " /><path fill="rgb(219,219,220)" stroke="rgb(219,219,220)" stroke-width="1" opacity="1" d="M 185.5 209 L 186.5 211 L 185.5 209 Z " /><path fill="rgb(219,219,220)" stroke="rgb(219,219,220)" stroke-width="1" opacity="1" d="M 70.5 212 L 69.5 214 L 70.5 212 Z " /><path fill="rgb(219,219,220)" stroke="rgb(219,219,220)" stroke-width="1" opacity="1" d="M 188.5 213 L 189.5 215 L 188.5 213 Z " /><path fill="rgb(72,127,157)" stroke="rgb(72,127,157)" stroke-width="1" opacity="1" d="M 117.5 22 L 120 22.5 L 117.5 23 L 117.5 22 Z " /><path fill="rgb(72,127,157)" stroke="rgb(72,127,157)" stroke-width="1" opacity="1" d="M 141.5 22 L 144 22.5 L 141.5 23 L 141.5 22 Z " /><path fill="rgb(72,127,157)" stroke="rgb(72,127,157)" stroke-width="1" opacity="1" d="M 109.5 23 L 111 23.5 L 107.5 25 L 107.5 24 L 109.5 23 Z " /><path fill="rgb(72,127,157)" stroke="rgb(72,127,157)" stroke-width="1" opacity="1" d="M 113.5 23 L 116 23.5 L 113.5 24 L 113.5 23 Z " /><path fill="rgb(72,127,157)" stroke="rgb(72,127,157)" stroke-width="1" opacity="1" d="M 145.5 23 L 148 23.5 L 145.5 24 L 145.5 23 Z " /><path fill="rgb(72,127,157)" stroke="rgb(72,127,157)" stroke-width="1" opacity="1" d="M 150.5 23 L 154 24.5 L 152.5 25 L 150.5 23 Z " /><path fill="rgb(72,127,157)" stroke="rgb(72,127,157)" stroke-width="1" opacity="1" d="M 105.5 24 L 104.5 26 L 105.5 24 Z " /><path fill="rgb(72,127,157)" stroke="rgb(72,127,157)" stroke-width="1" opacity="1" d="M 155.5 24 L 158 25.5 L 156.5 26 L 155.5 24 Z " /><path fill="rgb(72,127,157)" stroke="rgb(72,127,157)" stroke-width="1" opacity="1" d="M 101 35 Q 104.7 33.6 103 39.5 L 101 42.5 L 100 64.5 L 101 65.5 L 101 76.5 L 102 77.5 L 104 97.5 Q 102.3 101.8 100.5 99 L 95.5 97 L 94 97.5 L 94.5 96 L 91.5 94 L 90 94.5 Q 90.7 91.5 87 93 L 87 91 L 84.5 91 Q 67.8 77.7 44 71.5 L 54.5 71 L 70.5 74 L 72.5 73 L 81.5 75 L 84.5 74 L 92.5 74 L 94 72.5 L 96 69.5 L 98 41.5 L 101 35 Z " /><path fill="rgb(72,127,157)" stroke="rgb(72,127,157)" stroke-width="1" opacity="1" d="M 159.5 35 L 164 45.5 L 165 68.5 L 167.5 74 Q 173 75.5 174.5 73 L 175.5 74 L 183.5 74 L 185.5 73 L 194.5 75 L 198.5 73 L 214.5 71 L 225.5 73 L 227.5 73 Q 232.2 75.3 240.5 74 L 241.5 75 L 242.5 73 L 243.5 74 L 251.5 74 L 253.5 74 L 256 74.5 L 256 106 L 249.5 106 L 248.5 107 L 244.5 105 L 242.5 105 L 241 105.5 L 241.5 107 L 234 101.5 L 230.5 95 L 229 95.5 L 230 92.5 L 228 92.5 L 229 89.5 L 227 89.5 L 228 87.5 L 226.5 84 L 225 84.5 L 226 82.5 L 224 82.5 L 225 80.5 L 222.5 77 L 221 76.5 Q 223.3 75.3 220.5 74 L 215.5 73 L 200.5 78 L 177.5 91 L 175 91 L 175 93 Q 171.3 91.5 172 94.5 Q 170.3 92.9 168.5 96 L 167 96.5 L 167.5 98 L 165.5 97 Q 162.8 100.8 157 100 L 157 91.5 L 160 74.5 L 160 64.5 L 161 63.5 L 161 50.5 L 160 47.5 L 159.5 42 L 158 42.5 Q 157.1 37.1 159.5 35 Z " /><path fill="rgb(72,127,157)" stroke="rgb(72,127,157)" stroke-width="1" opacity="1" d="M 38.5 71 Q 42.3 70 41 73 L 38 74.5 L 38.5 76 L 37 76.5 L 37.5 78 L 36 77.5 L 37 79.5 L 35 79.5 L 34 83.5 L 34.5 85 L 33 84.5 L 32 88.5 L 32.5 90 L 31 89.5 L 25 103 Q 22.3 101.9 23 104.5 L 19.5 106 L 16.5 105 L 15 105.5 L 15.5 107 L 7.5 105 L 0.5 107 L 0 74 L 5.5 73 L 16 75 L 16.5 73 L 17.5 74 L 25.5 74 L 27.5 74 L 38.5 71 Z " /><path fill="rgb(72,127,157)" stroke="rgb(72,127,157)" stroke-width="1" opacity="1" d="M 147.5 113 L 146.5 115 L 147.5 113 Z " /><path fill="rgb(72,127,157)" stroke="rgb(72,127,157)" stroke-width="1" opacity="1" d="M 115.5 115 L 127.5 128 L 115.5 115 Z " /><path fill="rgb(72,127,157)" stroke="rgb(72,127,157)" stroke-width="1" opacity="1" d="M 134.5 125 L 133.5 127 L 134.5 125 Z " /><path fill="rgb(72,127,157)" stroke="rgb(72,127,157)" stroke-width="1" opacity="1" d="M 180.5 134 L 189 134.5 L 180.5 135 L 180.5 134 Z " /><path fill="rgb(72,127,157)" stroke="rgb(72,127,157)" stroke-width="1" opacity="1" d="M 190.5 134 L 194 134.5 L 190.5 135 L 190.5 134 Z " /><path fill="rgb(72,127,157)" stroke="rgb(72,127,157)" stroke-width="1" opacity="1" d="M 181.5 164 L 182.5 166 L 181.5 164 Z " /><path fill="rgb(229,229,229)" stroke="rgb(229,229,229)" stroke-width="1" opacity="1" d="M 111.5 30 L 113 30.5 L 111 31.5 L 120.5 32 L 122 33.5 L 123 73.5 L 124 74.5 L 124 86.5 L 125 87.5 L 127 108 L 132 108 L 132 106.5 L 135 91.5 L 135 80.5 L 136 79.5 L 137 33 L 150 31.5 L 149.5 30 L 152 31.5 L 151 32.5 L 151 61.5 L 150 62.5 L 149 74.5 Q 145.2 94.8 138 111 L 133.5 110 L 132 113.5 L 131 124.5 L 129.5 127 L 126.5 110 L 122 111 L 115 90.5 L 111 70.5 Q 112.7 64.3 110 62.5 L 110 31.5 L 111.5 30 Z " /><path fill="rgb(229,229,229)" stroke="rgb(229,229,229)" stroke-width="1" opacity="1" d="M 123.5 31 L 138 31.5 L 123.5 32 L 123.5 31 Z " /><path fill="rgb(229,229,229)" stroke="rgb(229,229,229)" stroke-width="1" opacity="1" d="M 44.5 73 Q 61.5 77 74.5 85 Q 92.7 95.3 107 109.5 L 103 111.5 L 107 114.5 L 104.5 113 L 72.5 93 L 44 82 L 43 74.5 L 44.5 73 Z " /><path fill="rgb(229,229,229)" stroke="rgb(229,229,229)" stroke-width="1" opacity="1" d="M 215.5 74 L 216 80.5 L 180.5 96 L 155.5 113 L 155.5 111 L 153 110.5 Q 177.7 85.7 215.5 74 Z " /><path fill="rgb(229,229,229)" stroke="rgb(229,229,229)" stroke-width="1" opacity="1" d="M 217.5 91 L 220.5 99 L 222 98.5 L 221 101.5 L 223 101.5 L 222 104.5 L 224 104.5 L 223 107.5 L 225 107.5 L 224 109.5 L 224.5 111 L 222.5 111 L 216.5 110 L 214.5 111 L 209.5 110 L 202.5 111 L 200.5 111 L 194.5 110 L 190.5 111 L 188.5 110 Q 186.7 112.7 180.5 111 L 178.5 110 L 176.5 110 L 170.5 111 L 170.5 110 L 217.5 91 Z " /><path fill="rgb(229,229,229)" stroke="rgb(229,229,229)" stroke-width="1" opacity="1" d="M 41 92 Q 66.8 98.8 89 110.5 L 86.5 111 Q 85.3 108.7 80.5 110 L 77.5 111 L 74.5 110 Q 73 112.5 67.5 111 L 65.5 110 L 63.5 110 L 57.5 111 L 55.5 111 L 53.5 110 L 51.5 110 L 44.5 111 L 42.5 111 L 37.5 110 L 35.5 111 L 34.5 109 L 36 109.5 L 40 95.5 L 39.5 94 L 41 94.5 L 41 92 Z " /><path fill="rgb(229,229,229)" stroke="rgb(229,229,229)" stroke-width="1" opacity="1" d="M 165.5 112 L 167 112.5 L 163.5 114 L 163.5 113 L 165.5 112 Z " /><path fill="rgb(229,229,229)" stroke="rgb(229,229,229)" stroke-width="1" opacity="1" d="M 94.5 113 L 98 114.5 L 96.5 115 L 94.5 113 Z " /><path fill="rgb(229,229,229)" stroke="rgb(229,229,229)" stroke-width="1" opacity="1" d="M 153.5 113 L 152.5 115 L 153.5 113 Z " /><path fill="rgb(229,229,229)" stroke="rgb(229,229,229)" stroke-width="1" opacity="1" d="M 108.5 115 L 109.5 117 L 108.5 115 Z " /><path fill="rgb(229,229,229)" stroke="rgb(229,229,229)" stroke-width="1" opacity="1" d="M 150.5 115 L 149.5 117 L 150.5 115 Z " /><path fill="rgb(229,229,229)" stroke="rgb(229,229,229)" stroke-width="1" opacity="1" d="M 111.5 117 L 112.5 119 L 111.5 117 Z " /><path fill="rgb(229,229,229)" stroke="rgb(229,229,229)" stroke-width="1" opacity="1" d="M 146.5 118 L 145.5 120 L 146.5 118 Z " /><path fill="rgb(229,229,229)" stroke="rgb(229,229,229)" stroke-width="1" opacity="1" d="M 114.5 119 L 115.5 121 L 114.5 119 Z " /><path fill="rgb(229,229,229)" stroke="rgb(229,229,229)" stroke-width="1" opacity="1" d="M 143.5 120 L 142.5 122 L 143.5 120 Z " /><path fill="rgb(229,229,229)" stroke="rgb(229,229,229)" stroke-width="1" opacity="1" d="M 117.5 121 L 118.5 123 L 117.5 121 Z " /><path fill="rgb(229,229,229)" stroke="rgb(229,229,229)" stroke-width="1" opacity="1" d="M 121.5 124 L 120.5 126 L 121.5 124 Z " /><path fill="rgb(229,229,229)" stroke="rgb(229,229,229)" stroke-width="1" opacity="1" d="M 136.5 125 L 137 127 L 132.5 129 L 133.5 127 L 136.5 125 Z " /><path fill="rgb(229,229,229)" stroke="rgb(229,229,229)" stroke-width="1" opacity="1" d="M 124.5 126 L 126.5 129 L 124 128 L 124.5 126 Z " /><path fill="rgb(229,229,229)" stroke="rgb(229,229,229)" stroke-width="1" opacity="1" d="M 128.5 131 L 127.5 133 L 128.5 131 Z " /><path fill="rgb(229,229,229)" stroke="rgb(229,229,229)" stroke-width="1" opacity="1" d="M 131.5 131 L 134 134.5 L 132 133.5 L 131.5 131 Z " /><path fill="rgb(229,229,229)" stroke="rgb(229,229,229)" stroke-width="1" opacity="1" d="M 125.5 133 L 126 135.5 L 123.5 138 L 125.5 133 Z " /><path fill="rgb(229,229,229)" stroke="rgb(229,229,229)" stroke-width="1" opacity="1" d="M 135.5 134 L 137.5 137 L 135.5 134 Z " /><path fill="rgb(229,229,229)" stroke="rgb(229,229,229)" stroke-width="1" opacity="1" d="M 121.5 136 L 119.5 139 L 121.5 136 Z " /><path fill="rgb(229,229,229)" stroke="rgb(229,229,229)" stroke-width="1" opacity="1" d="M 140.5 138 L 142.5 141 L 140.5 138 Z " /><path fill="rgb(229,229,229)" stroke="rgb(229,229,229)" stroke-width="1" opacity="1" d="M 121.5 140 L 120.5 142 L 121.5 140 Z " /><path fill="rgb(229,229,229)" stroke="rgb(229,229,229)" stroke-width="1" opacity="1" d="M 137.5 140 L 138.5 142 L 137.5 140 Z " /><path fill="rgb(229,229,229)" stroke="rgb(229,229,229)" stroke-width="1" opacity="1" d="M 115.5 141 L 113.5 144 L 115.5 141 Z " /><path fill="rgb(229,229,229)" stroke="rgb(229,229,229)" stroke-width="1" opacity="1" d="M 146.5 143 L 148.5 146 L 146.5 143 Z " /><path fill="rgb(229,229,229)" stroke="rgb(229,229,229)" stroke-width="1" opacity="1" d="M 140.5 144 L 141.5 146 L 140.5 144 Z " /><path fill="rgb(229,229,229)" stroke="rgb(229,229,229)" stroke-width="1" opacity="1" d="M 117.5 145 L 116.5 147 L 117.5 145 Z " /><path fill="rgb(229,229,229)" stroke="rgb(229,229,229)" stroke-width="1" opacity="1" d="M 109.5 146 L 107.5 149 L 109.5 146 Z " /><path fill="rgb(229,229,229)" stroke="rgb(229,229,229)" stroke-width="1" opacity="1" d="M 114.5 149 L 113.5 151 L 114.5 149 Z " /><path fill="rgb(229,229,229)" stroke="rgb(229,229,229)" stroke-width="1" opacity="1" d="M 153.5 149 L 157.5 154 L 153.5 149 Z " /><path fill="rgb(229,229,229)" stroke="rgb(229,229,229)" stroke-width="1" opacity="1" d="M 145.5 151 L 146.5 153 L 145.5 151 Z " /><path fill="rgb(229,229,229)" stroke="rgb(229,229,229)" stroke-width="1" opacity="1" d="M 101.5 153 L 98.5 157 L 101.5 153 Z " /><path fill="rgb(229,229,229)" stroke="rgb(229,229,229)" stroke-width="1" opacity="1" d="M 110.5 154 L 109.5 156 L 110.5 154 Z " /><path fill="rgb(229,229,229)" stroke="rgb(229,229,229)" stroke-width="1" opacity="1" d="M 148.5 155 L 149.5 157 L 148.5 155 Z " /><path fill="rgb(229,229,229)" stroke="rgb(229,229,229)" stroke-width="1" opacity="1" d="M 107.5 158 L 106.5 160 L 107.5 158 Z " /><path fill="rgb(229,229,229)" stroke="rgb(229,229,229)" stroke-width="1" opacity="1" d="M 163.5 158 L 185.5 181 L 163.5 158 Z " /><path fill="rgb(229,229,229)" stroke="rgb(229,229,229)" stroke-width="1" opacity="1" d="M 104.5 162 L 103.5 164 L 104.5 162 Z " /><path fill="rgb(229,229,229)" stroke="rgb(229,229,229)" stroke-width="1" opacity="1" d="M 153.5 162 L 154.5 164 L 153.5 162 Z " /><path fill="rgb(229,229,229)" stroke="rgb(229,229,229)" stroke-width="1" opacity="1" d="M 90.5 163 L 75.5 179 L 90.5 163 Z " /><path fill="rgb(229,229,229)" stroke="rgb(229,229,229)" stroke-width="1" opacity="1" d="M 156.5 166 L 157.5 168 L 156.5 166 Z " /><path fill="rgb(229,229,229)" stroke="rgb(229,229,229)" stroke-width="1" opacity="1" d="M 98.5 170 L 97.5 172 L 98.5 170 Z " /><path fill="rgb(229,229,229)" stroke="rgb(229,229,229)" stroke-width="1" opacity="1" d="M 161.5 173 L 162.5 175 L 161.5 173 Z " /><path fill="rgb(229,229,229)" stroke="rgb(229,229,229)" stroke-width="1" opacity="1" d="M 95.5 174 L 94.5 176 L 95.5 174 Z " /><path fill="rgb(229,229,229)" stroke="rgb(229,229,229)" stroke-width="1" opacity="1" d="M 163.5 176 L 164.5 178 L 163.5 176 Z " /><path fill="rgb(229,229,229)" stroke="rgb(229,229,229)" stroke-width="1" opacity="1" d="M 68.5 186 L 65.5 190 L 68.5 186 Z " /><path fill="rgb(229,229,229)" stroke="rgb(229,229,229)" stroke-width="1" opacity="1" d="M 87.5 186 L 86.5 188 L 87.5 186 Z " /><path fill="rgb(229,229,229)" stroke="rgb(229,229,229)" stroke-width="1" opacity="1" d="M 191.5 187 L 194.5 191 L 191.5 187 Z " /><path fill="rgb(229,229,229)" stroke="rgb(229,229,229)" stroke-width="1" opacity="1" d="M 173.5 191 L 174.5 193 L 173.5 191 Z " /><path fill="rgb(229,229,229)" stroke="rgb(229,229,229)" stroke-width="1" opacity="1" d="M 61.5 194 L 59.5 197 L 61.5 194 Z " /><path fill="rgb(229,229,229)" stroke="rgb(229,229,229)" stroke-width="1" opacity="1" d="M 82.5 194 L 81.5 196 L 82.5 194 Z " /><path fill="rgb(229,229,229)" stroke="rgb(229,229,229)" stroke-width="1" opacity="1" d="M 175.5 194 L 176.5 196 L 175.5 194 Z " /><path fill="rgb(229,229,229)" stroke="rgb(229,229,229)" stroke-width="1" opacity="1" d="M 198.5 195 L 200.5 198 L 198.5 195 Z " /><path fill="rgb(229,229,229)" stroke="rgb(229,229,229)" stroke-width="1" opacity="1" d="M 177.5 197 L 178.5 199 L 177.5 197 Z " /><path fill="rgb(229,229,229)" stroke="rgb(229,229,229)" stroke-width="1" opacity="1" d="M 56.5 200 L 55.5 202 L 56.5 200 Z " /><path fill="rgb(229,229,229)" stroke="rgb(229,229,229)" stroke-width="1" opacity="1" d="M 179.5 200 L 180.5 202 L 179.5 200 Z " /><path fill="rgb(229,229,229)" stroke="rgb(229,229,229)" stroke-width="1" opacity="1" d="M 181.5 203 L 182.5 205 L 181.5 203 Z " /><path fill="rgb(229,229,229)" stroke="rgb(229,229,229)" stroke-width="1" opacity="1" d="M 74.5 206 L 73.5 208 L 74.5 206 Z " /><path fill="rgb(229,229,229)" stroke="rgb(229,229,229)" stroke-width="1" opacity="1" d="M 184.5 207 L 185.5 209 L 184.5 207 Z " /><path fill="rgb(229,229,229)" stroke="rgb(229,229,229)" stroke-width="1" opacity="1" d="M 71.5 210 L 70.5 212 L 71.5 210 Z " /><path fill="rgb(229,229,229)" stroke="rgb(229,229,229)" stroke-width="1" opacity="1" d="M 187.5 211 L 188.5 213 L 187.5 211 Z " /><path fill="rgb(42,92,129)" stroke="rgb(42,92,129)" stroke-width="1" opacity="1" d="M 154.5 70 L 155 73.5 L 151 93.5 L 146 108.5 L 146 114.5 L 140.5 120 L 141 118.5 L 141 114.5 L 145 101.5 L 144.5 100 L 146 100.5 L 147 96.5 Q 144.5 95 148 93.5 L 154.5 70 Z " /><path fill="rgb(42,92,129)" stroke="rgb(42,92,129)" stroke-width="1" opacity="1" d="M 107.5 75 L 114 94.5 L 114 96.5 L 115.5 103 L 117 102.5 L 116 105.5 L 119 117.5 L 114 113.5 L 114 107.5 L 107 80.5 L 107.5 75 Z " /><path fill="rgb(42,92,129)" stroke="rgb(42,92,129)" stroke-width="1" opacity="1" d="M 236.5 121 L 237 125.5 L 236 125.5 L 236.5 121 Z " /><path fill="rgb(42,92,129)" stroke="rgb(42,92,129)" stroke-width="1" opacity="1" d="M 24.5 125 L 28 126.5 L 27 129.5 L 32.5 137 L 47.5 142 L 63.5 143 L 64.5 144 L 66.5 144 L 103 143 L 101.5 146 L 89.5 153 L 64 175.5 L 61.5 179 L 60.5 178 L 57.5 181 L 48.5 188 L 38.5 191 Q 36.8 188.3 30.5 190 L 27.5 191 L 26.5 190 L 17.5 190 L 15.5 191 L 14.5 190 L 0 190 L 0.5 162 L 2.5 162 L 9.5 163 L 11.5 162 L 12.5 163 L 22.5 163 L 25.5 162 L 32.5 163 L 34.5 163 L 44.5 163 L 45.5 162 L 47.5 162 L 55.5 163 L 57.5 163 L 71.5 162 L 86.5 155 L 92 150.5 Q 92.8 147.9 89.5 149 L 88.5 148 L 77.5 148 L 74.5 149 L 73.5 148 L 56.5 148 L 41.5 145 L 32.5 142 L 25 135.5 Q 22.4 131.9 24.5 125 Z " /><path fill="rgb(42,92,129)" stroke="rgb(42,92,129)" stroke-width="1" opacity="1" d="M 234.5 127 L 237 127 L 237 133.5 L 232.5 140 L 221.5 145 L 201.5 149 L 167 149 Q 165.5 152.7 168.5 152 L 173.5 156 L 190.5 163 L 192.5 162 L 193.5 163 L 203.5 163 L 206.5 162 L 213.5 163 L 215.5 163 L 225.5 163 L 226.5 162 L 228.5 162 L 235.5 163 L 237.5 162 L 238.5 163 L 248.5 163 L 251.5 162 L 256 163 L 256 190.5 L 253.5 191 L 252.5 190 L 243.5 190 L 241.5 191 L 240.5 190 L 220.5 190 L 218.5 190 Q 212.2 190.8 209.5 188 L 197.5 178 L 196.5 179 L 179.5 162 L 156 144.5 Q 157.3 141.8 158.5 144 L 161.5 143 L 163.5 144 L 165.5 144 L 179.5 144 L 181.5 145 L 182.5 144 L 191.5 144 L 193.5 144 L 205.5 144 L 215.5 142 Q 225.9 140.4 232 134.5 L 233 128.5 L 234.5 127 Z " /><path fill="rgb(42,92,129)" stroke="rgb(42,92,129)" stroke-width="1" opacity="1" d="M 200.5 183 L 201.5 185 L 200.5 183 Z " /><path fill="rgb(42,92,129)" stroke="rgb(42,92,129)" stroke-width="1" opacity="1" d="M 129.5 184 L 130.5 186 L 129.5 184 Z " /><path fill="rgb(48,100,137)" stroke="rgb(48,100,137)" stroke-width="1" opacity="1" d="M 149.5 97 L 150 99.5 L 149 99.5 L 149.5 97 Z " /><path fill="rgb(48,100,137)" stroke="rgb(48,100,137)" stroke-width="1" opacity="1" d="M 112.5 103 L 114 112.5 L 110.5 110 L 109 109.5 L 110.5 105 L 111.5 107 L 112.5 103 Z " /><path fill="rgb(48,100,137)" stroke="rgb(48,100,137)" stroke-width="1" opacity="1" d="M 147 105 L 150 106.5 L 151 109.5 L 146 113.5 L 147 105 Z " /><path fill="rgb(48,100,137)" stroke="rgb(48,100,137)" stroke-width="1" opacity="1" d="M 236.5 118 L 242 131.5 L 243 138 L 246.5 139 L 249.5 138 L 253.5 138 L 256 138.5 L 256 152.5 Q 255 155 250.5 154 L 248.5 153 L 246.5 153 L 243.5 154 L 240.5 153 Q 239.2 155.3 234.5 154 L 232.5 153 L 228.5 154 L 226.5 153 L 224.5 154 L 222.5 153 L 220.5 154 L 217.5 153 Q 216.3 155.3 211.5 154 L 209.5 153 L 205.5 154 L 203.5 154 L 199.5 153 L 197.5 154 L 198.5 152 Q 208.8 153 214 150 Q 212.7 146.7 217.5 148 L 226.5 144 L 235 137.5 Q 238 134.5 237 127.5 L 237 125.5 L 236.5 118 Z " /><path fill="rgb(48,100,137)" stroke="rgb(48,100,137)" stroke-width="1" opacity="1" d="M 23.5 119 L 24 121.5 L 24 123.5 Q 21.7 136.8 29.5 140 L 49.5 150 L 57.5 152 L 60.5 151 L 61.5 152 L 75.5 152 L 78 153.5 L 76.5 154 L 74.5 153 L 70.5 154 L 67.5 153 L 65.5 153 L 62.5 154 L 59.5 153 Q 58.3 155.3 53.5 154 L 51.5 153 L 47.5 154 L 45.5 153 L 43.5 154 L 41.5 153 L 39.5 154 L 36.5 153 L 31.5 154 L 29.5 153 L 24.5 154 L 22.5 153 L 20.5 153 L 17.5 154 L 14.5 153 Q 13.2 155.3 8.5 154 L 6.5 153 L 2.5 154 L 0 153 L 0 138.5 L 2.5 138 L 4.5 138 L 9.5 139 L 11.5 138 L 13.5 139 L 16.5 138 Q 19.5 138.9 18 134.5 L 23.5 119 Z " /><path fill="rgb(48,100,137)" stroke="rgb(48,100,137)" stroke-width="1" opacity="1" d="M 183.5 153 L 187 153.5 L 183.5 154 L 183.5 153 Z " /><path fill="rgb(48,100,137)" stroke="rgb(48,100,137)" stroke-width="1" opacity="1" d="M 192.5 153 L 195 153.5 L 192.5 154 L 192.5 153 Z " /><path fill="rgb(48,100,137)" stroke="rgb(48,100,137)" stroke-width="1" opacity="1" d="M 71.5 168 L 70.5 170 L 71.5 168 Z " /><path fill="rgb(47,99,137)" stroke="rgb(47,99,137)" stroke-width="1" opacity="1" d="M 227.5 142 L 226.5 144 L 217.5 148 L 214 148 Q 215.1 150.7 212.5 150 Q 207.8 153.3 198.5 152 L 197 153.5 L 198.5 154 L 201.5 153 L 203.5 154 L 205.5 154 L 210.5 153 Q 211.7 155.3 216.5 154 L 219.5 153 L 221.5 154 L 223.5 153 L 225.5 154 L 227.5 153 L 231.5 154 L 233.5 153 Q 234.8 155.3 239.5 154 L 242.5 153 L 244.5 154 L 246.5 153 L 248.5 153 L 254.5 154 L 256 153.5 L 256 162.5 L 253.5 163 L 251.5 162 L 248.5 163 Q 240.3 164.7 236.5 162 L 231.5 163 L 228.5 162 L 225.5 163 L 215.5 163 L 214.5 162 Q 213.3 164.2 208.5 163 L 206.5 162 L 203.5 163 Q 195.3 164.7 191.5 162 L 189.5 162 L 186.5 162 L 169.5 153 L 168 153.5 L 168.5 152 Q 165.5 152.7 167 149 L 201.5 149 L 221.5 145 L 227.5 142 Z M 184 153 L 184 154 L 187 154 L 184 153 Z M 193 153 L 193 154 L 195 154 L 193 153 Z " /><path fill="rgb(47,99,137)" stroke="rgb(47,99,137)" stroke-width="1" opacity="1" d="M 36.5 143 L 56.5 148 L 73.5 148 L 76.5 149 L 77.5 148 L 88.5 148 L 92 149 L 93 151.5 L 90.5 152 L 89 152.5 L 89.5 154 Q 88 151.5 86.5 155 L 71.5 162 L 57.5 163 L 55.5 163 L 47.5 162 L 44.5 163 L 34.5 163 L 33.5 162 Q 32.2 164.2 27.5 163 L 25.5 162 L 22.5 163 Q 14.3 164.7 10.5 162 L 5.5 163 L 2.5 162 Q 1.3 164.3 0 161.5 L 0 153.5 L 1.5 153 L 5.5 154 L 7.5 153 Q 8.8 155.3 13.5 154 L 16.5 153 L 18.5 154 L 20.5 153 L 22.5 153 L 28.5 154 L 30.5 153 L 35.5 154 L 38.5 153 L 40.5 154 L 42.5 153 L 44.5 154 L 46.5 153 L 50.5 154 L 52.5 153 Q 53.8 155.3 58.5 154 L 61.5 153 L 63.5 154 L 65.5 153 L 67.5 153 L 73.5 154 L 76 152.5 L 58.5 151 L 56.5 151 L 49.5 150 L 43.5 146 L 36.5 144 L 36.5 143 Z " /><path fill="rgb(239,240,240)" stroke="rgb(239,240,240)" stroke-width="1" opacity="1" d="M 109.5 30 L 111.5 31 L 122.5 31 L 123.5 32 L 137.5 32 L 138.5 31 Q 147.4 32.4 152.5 30 L 152.5 31 L 137 33 L 136 79.5 L 135 80.5 L 135 91.5 L 134 92.5 L 133 105.5 L 132 108 Q 124.5 110.8 127 102.5 L 124 86.5 L 123 57.5 L 122 56.5 L 122 33.5 L 120.5 32 L 111.5 32 L 109.5 30 Z " /><path fill="rgb(239,240,240)" stroke="rgb(239,240,240)" stroke-width="1" opacity="1" d="M 216.5 74 Q 218.4 95.6 226 111.5 L 225 111.5 L 217.5 91 L 178.5 106 L 137.5 126 L 138.5 124 L 180.5 96 L 216 80.5 L 216.5 74 Z " /><path fill="rgb(239,240,240)" stroke="rgb(239,240,240)" stroke-width="1" opacity="1" d="M 43.5 76 L 44 82 Q 64.7 87.7 81.5 98 L 124 126.5 L 122.5 126 L 75.5 104 L 41 92 L 33.5 114 L 33 112.5 Q 41.1 97.1 43.5 76 Z " /><path fill="rgb(239,240,240)" stroke="rgb(239,240,240)" stroke-width="1" opacity="1" d="M 226.5 113 L 228 116.5 L 227 116.5 L 226.5 113 Z " /><path fill="rgb(239,240,240)" stroke="rgb(239,240,240)" stroke-width="1" opacity="1" d="M 232.5 125 L 233.5 127 L 232.5 125 Z " /><path fill="rgb(239,240,240)" stroke="rgb(239,240,240)" stroke-width="1" opacity="1" d="M 126.5 133 L 123 137.5 L 94 175.5 Q 82.8 196.3 68.5 214 L 58 205.5 L 56 201.5 Q 74.5 177 97.5 157 L 126.5 133 Z " /><path fill="rgb(239,240,240)" stroke="rgb(239,240,240)" stroke-width="1" opacity="1" d="M 133.5 133 Q 164.7 157.3 191 186.5 L 203 200.5 L 203 202.5 L 193.5 213 L 190.5 215 L 163 174.5 L 136 138.5 L 133.5 133 Z " /><path fill="rgb(29,77,116)" stroke="rgb(29,77,116)" stroke-width="1" opacity="1" d="M 146.5 96 L 147 97.5 Q 142.2 106.2 141 118.5 L 135.5 124 Q 132.8 122.8 135 121.5 L 146.5 96 Z " /><path fill="rgb(29,77,116)" stroke="rgb(29,77,116)" stroke-width="1" opacity="1" d="M 115.5 100 L 126 122.5 L 124.5 124 L 119 118.5 L 115.5 100 Z " /><path fill="rgb(29,77,116)" stroke="rgb(29,77,116)" stroke-width="1" opacity="1" d="M 27 127 L 33 128.5 L 32 130.5 L 37.5 135 L 49.5 138 Q 55.8 136.3 57.5 139 L 97.5 139 L 98.5 138 L 111.5 138 L 109.5 141 L 103.5 144 L 102.5 143 L 87.5 143 L 86.5 144 L 66.5 144 L 63.5 143 L 53.5 143 L 39.5 140 Q 31.9 138.2 28 132.5 L 27 127 Z " /><path fill="rgb(29,77,116)" stroke="rgb(29,77,116)" stroke-width="1" opacity="1" d="M 231.5 128 Q 234.9 127.1 233 132.5 L 229.5 137 L 215.5 142 L 205.5 144 L 193.5 144 L 192.5 145 L 191.5 144 L 182.5 144 L 180.5 145 L 179.5 144 L 165.5 144 L 164.5 143 L 162.5 144 L 160.5 143 L 158.5 144 L 156.5 144 L 146 138.5 L 158.5 138 L 159.5 139 L 172.5 139 L 173.5 140 L 199.5 140 L 200.5 139 L 208.5 139 L 218.5 137 Q 225.9 135.9 229 130.5 Q 228.3 128.3 230.5 129 L 231.5 128 Z " /><path fill="rgb(29,77,116)" stroke="rgb(29,77,116)" stroke-width="1" opacity="1" d="M 170.5 134 L 173 134.5 L 170.5 135 L 170.5 134 Z " /><path fill="rgb(29,77,116)" stroke="rgb(29,77,116)" stroke-width="1" opacity="1" d="M 129.5 157 L 132 158 L 135 167.5 L 138 188.5 L 142 201.5 L 147 226.5 L 146 229 L 137.5 230 Q 136.2 227.8 131.5 229 L 129.5 229 L 123.5 230 Q 121.8 227.3 115.5 229 L 114 229.5 L 114 228 L 112 227.5 L 112 222.5 L 113 219.5 L 121 188.5 L 126 160.5 L 129.5 157 Z " /><path fill="rgb(29,77,116)" stroke="rgb(29,77,116)" stroke-width="1" opacity="1" d="M 61.5 177 L 61 178.5 L 52 190.5 L 51 195.5 L 51 197.5 L 49 204.5 L 50 207.5 L 52 215.5 L 58 225.5 L 57.5 227 L 59 227.5 L 56 228.5 L 58 229.5 L 56.5 230 Q 54.8 227.3 48.5 229 L 46.5 230 L 41.5 229 L 39.5 230 L 35.5 229 L 33.5 229 L 24.5 230 Q 23.3 227.8 18.5 229 L 16.5 229 L 10.5 230 Q 8.8 227.3 2.5 229 Q 1.3 231.3 0 228.5 L 0 190 L 14.5 190 L 16.5 191 L 17.5 190 L 26.5 190 L 29.5 191 Q 31.3 188.3 37.5 190 L 39.5 190 Q 45.8 190.8 48.5 188 L 61.5 177 Z " /><path fill="rgb(29,77,116)" stroke="rgb(29,77,116)" stroke-width="1" opacity="1" d="M 196.5 177 L 209.5 188 L 219.5 191 L 220.5 190 L 240.5 190 L 242.5 191 L 243.5 190 L 252.5 190 L 256 191 L 256 228.5 L 252.5 229 L 250.5 230 Q 249.3 227.8 244.5 229 L 242.5 229 L 236.5 230 Q 234.8 227.3 228.5 229 L 226.5 229 L 220.5 230 L 216.5 229 L 214.5 230 Q 212.8 227.3 206.5 229 L 204.5 230 L 201 227.5 L 202 224.5 L 204 221.5 Q 201.5 220 205 218.5 L 209 208.5 L 209 200.5 L 208 198 L 206 197.5 L 208 193.5 L 197 179.5 L 196.5 177 Z " /><path fill="rgb(17,60,101)" stroke="rgb(17,60,101)" stroke-width="1" opacity="0.996078431372549" d="M 125.5 123 L 127 125.5 L 125 124.5 L 125.5 123 Z " /><path fill="rgb(17,60,101)" stroke="rgb(17,60,101)" stroke-width="1" opacity="0.996078431372549" d="M 134.5 123 L 135 124.5 L 132 126.5 L 134.5 123 Z " /><path fill="rgb(17,60,101)" stroke="rgb(17,60,101)" stroke-width="1" opacity="0.996078431372549" d="M 32 129 L 41.5 132 L 53.5 133 L 54.5 134 L 99.5 134 L 100.5 133 L 112.5 133 L 113.5 132 L 125.5 131 L 125.5 132 L 112.5 139 L 111.5 138 L 98.5 138 L 97.5 139 L 57.5 139 L 40.5 136 Q 34.8 134.8 32 130.5 L 32 129 Z " /><path fill="rgb(17,60,101)" stroke="rgb(17,60,101)" stroke-width="1" opacity="0.996078431372549" d="M 228.5 129 L 229 130.5 L 224.5 135 L 208.5 139 L 200.5 139 L 199.5 140 L 173.5 140 L 172.5 139 L 145.5 138 L 134 131.5 L 136.5 131 L 137.5 132 L 169.5 134 L 170.5 135 L 201.5 135 L 202.5 134 L 216.5 133 L 228.5 129 Z " /><path fill="rgb(17,60,101)" stroke="rgb(17,60,101)" stroke-width="1" opacity="0.996078431372549" d="M 129.5 136 L 136 168.5 L 144 193.5 Q 151.5 212.4 162 227 L 172.5 226 L 185.5 220 L 203 204.5 L 206 198 Q 208.7 196.9 208 199.5 L 209 200.5 L 209 208.5 L 203 220.5 Q 205.5 222 202 223.5 L 201 225.5 L 202.5 229 L 205.5 230 Q 207.3 227.3 213.5 229 L 215.5 230 L 219.5 229 L 221.5 230 L 226.5 229 L 228.5 229 L 237.5 230 L 242.5 229 L 244.5 229 L 251.5 230 L 256 229 L 256 255.5 L 255.5 256 L 0 256 L 0.5 229 L 2.5 229 L 11.5 230 L 16.5 229 L 18.5 229 L 25.5 230 Q 27.3 227.3 33.5 229 L 35.5 229 L 40.5 230 L 45.5 229 L 47.5 230 L 59 227.5 L 57 226.5 L 57 224.5 L 49 206.5 L 49 204.5 L 51.5 197 Q 56.6 207.4 65.5 214 Q 76.3 224.7 96.5 226 Q 108.8 210.8 116 190.5 L 126 156.5 L 129.5 136 Z M 130 157 L 126 161 L 121 189 L 113 220 L 112 223 L 112 228 L 114 228 L 114 230 L 116 229 Q 122 227 124 230 L 130 229 L 132 229 Q 136 228 138 230 L 146 229 L 147 227 L 142 202 L 138 189 L 135 168 L 132 158 L 130 157 Z " /><path fill="rgb(173,190,200)" stroke="rgb(173,190,200)" stroke-width="1" opacity="1" d="M 105.5 28 L 156 28.5 L 144.5 31 L 117.5 31 L 116.5 30 L 105.5 29 L 105.5 28 Z " /><path fill="rgb(173,190,200)" stroke="rgb(173,190,200)" stroke-width="1" opacity="1" d="M 103.5 29 L 106 35.5 L 106 37.5 L 106 45.5 L 109 59.5 L 109 61.5 L 108 66.5 L 109 67.5 L 109 75.5 L 108 75.5 L 104 55.5 L 103.5 29 Z " /><path fill="rgb(173,190,200)" stroke="rgb(173,190,200)" stroke-width="1" opacity="1" d="M 156.5 30 L 158 30.5 L 158 46.5 L 157 47.5 L 157 55.5 L 155 66.5 L 151.5 76 L 152 72.5 L 151 66.5 L 152 61.5 L 153 56.5 L 153 54.5 L 153 47.5 L 155 40.5 L 155 31.5 L 156.5 30 Z " /><path fill="rgb(173,190,200)" stroke="rgb(173,190,200)" stroke-width="1" opacity="1" d="M 216.5 73 Q 219.3 72.4 218 78.5 L 233 123.5 L 231 122.5 L 221 96.5 L 216.5 73 Z " /><path fill="rgb(173,190,200)" stroke="rgb(173,190,200)" stroke-width="1" opacity="1" d="M 42.5 76 L 43 79.5 L 36 105.5 L 28.5 122 L 28 120.5 L 42.5 76 Z " /><path fill="rgb(173,190,200)" stroke="rgb(173,190,200)" stroke-width="1" opacity="1" d="M 110.5 111 L 111.5 113 L 110.5 111 Z " /><path fill="rgb(173,190,200)" stroke="rgb(173,190,200)" stroke-width="1" opacity="1" d="M 150.5 111 L 149.5 113 L 150.5 111 Z " /><path fill="rgb(173,190,200)" stroke="rgb(173,190,200)" stroke-width="1" opacity="1" d="M 221.5 112 Q 225.9 110.5 225 113.5 L 232.5 126 Q 233.7 123.7 235 126.5 L 232.5 127 L 211.5 133 L 202.5 133 L 201.5 134 L 169.5 134 L 168.5 133 L 155.5 133 L 154.5 132 L 136 131 L 136.5 129 L 143.5 129 L 144.5 128 L 157.5 127 L 190.5 121 L 221.5 112 Z " /><path fill="rgb(173,190,200)" stroke="rgb(173,190,200)" stroke-width="1" opacity="1" d="M 34 113 L 38.5 113 L 49.5 117 L 81.5 124 L 93.5 125 L 107.5 128 L 114.5 128 L 115.5 129 L 122.5 129 L 124 130.5 L 114.5 131 L 113.5 132 L 102.5 132 L 101.5 133 L 53.5 133 L 52.5 132 L 41.5 131 L 29.5 126 L 26 126 L 26.5 124 Q 28.3 126.8 30 122.5 L 34 113 Z " /><path fill="rgb(173,190,200)" stroke="rgb(173,190,200)" stroke-width="1" opacity="1" d="M 142.5 118 L 140.5 121 L 142.5 118 Z " /><path fill="rgb(173,190,200)" stroke="rgb(173,190,200)" stroke-width="1" opacity="1" d="M 129 129 Q 132 128 131 131 Q 128 132 129 129 Z " /><path fill="rgb(173,190,200)" stroke="rgb(173,190,200)" stroke-width="1" opacity="1" d="M 127.5 138 L 128 142.5 L 123 165.5 L 114 193.5 Q 106.8 211.1 97 225 L 86 223.5 Q 111.7 185.7 127.5 138 Z " /><path fill="rgb(173,190,200)" stroke="rgb(173,190,200)" stroke-width="1" opacity="1" d="M 132.5 140 Q 146.4 189.1 174 224.5 Q 170.3 226.8 163.5 226 L 155 214.5 L 143 188.5 L 135 160.5 L 132 145.5 L 132.5 140 Z " /><path fill="rgb(173,190,200)" stroke="rgb(173,190,200)" stroke-width="1" opacity="1" d="M 80.5 161 L 79.5 163 L 80.5 161 Z " /><path fill="rgb(173,190,200)" stroke="rgb(173,190,200)" stroke-width="1" opacity="1" d="M 178.5 162 L 179.5 164 L 178.5 162 Z " /><path fill="rgb(173,190,200)" stroke="rgb(173,190,200)" stroke-width="1" opacity="1" d="M 73.5 167 L 70.5 171 L 73.5 167 Z " /><path fill="rgb(173,190,200)" stroke="rgb(173,190,200)" stroke-width="1" opacity="1" d="M 188.5 171 L 191.5 175 L 188.5 171 Z " /><path fill="rgb(173,190,200)" stroke="rgb(173,190,200)" stroke-width="1" opacity="1" d="M 66.5 174 L 62.5 179 L 66.5 174 Z " /><path fill="rgb(173,190,200)" stroke="rgb(173,190,200)" stroke-width="1" opacity="1" d="M 60.5 208 L 62.5 211 L 60.5 208 Z " /><path fill="rgb(143,174,194)" stroke="rgb(143,174,194)" stroke-width="1" opacity="1" d="M 112.5 24 L 148.5 24 Q 149.8 26.2 154.5 25 L 158 27.5 L 103.5 28 L 104.5 26 L 112.5 24 Z " /><path fill="rgb(143,174,194)" stroke="rgb(143,174,194)" stroke-width="1" opacity="1" d="M 103.5 45 L 104 48.5 L 103 48.5 L 103.5 45 Z " /><path fill="rgb(143,174,194)" stroke="rgb(143,174,194)" stroke-width="1" opacity="1" d="M 157.5 47 L 158 49.5 L 157 49.5 L 157.5 47 Z " /><path fill="rgb(143,174,194)" stroke="rgb(143,174,194)" stroke-width="1" opacity="1" d="M 41.5 72 Q 44.5 71.1 43 75.5 L 36 94.5 L 28 122.5 L 25.5 125 L 25 117.5 L 36 81.5 L 41.5 72 Z " /><path fill="rgb(143,174,194)" stroke="rgb(143,174,194)" stroke-width="1" opacity="1" d="M 218.5 73 L 223 79.5 L 231 103.5 L 235 117.5 L 235 125.5 L 233 124.5 L 218 78.5 L 218.5 73 Z " /><path fill="rgb(143,174,194)" stroke="rgb(143,174,194)" stroke-width="1" opacity="1" d="M 108.5 109 L 109.5 111 L 108.5 109 Z " /><path fill="rgb(143,174,194)" stroke="rgb(143,174,194)" stroke-width="1" opacity="1" d="M 102.5 132 L 106 132.5 L 102.5 133 L 102.5 132 Z " /><path fill="rgb(143,174,194)" stroke="rgb(143,174,194)" stroke-width="1" opacity="1" d="M 62.5 133 L 90 133.5 L 62.5 134 L 62.5 133 Z " /><path fill="rgb(143,174,194)" stroke="rgb(143,174,194)" stroke-width="1" opacity="1" d="M 164.5 133 L 169 133.5 L 164.5 134 L 164.5 133 Z " /><path fill="rgb(143,174,194)" stroke="rgb(143,174,194)" stroke-width="1" opacity="1" d="M 202.5 133 L 206 133.5 L 202.5 134 L 202.5 133 Z " /><path fill="rgb(143,174,194)" stroke="rgb(143,174,194)" stroke-width="1" opacity="1" d="M 185.5 168 L 187.5 171 L 185.5 168 Z " /><path fill="rgb(143,174,194)" stroke="rgb(143,174,194)" stroke-width="1" opacity="1" d="M 192.5 175 L 195.5 179 L 192.5 175 Z " /><path fill="rgb(143,174,194)" stroke="rgb(143,174,194)" stroke-width="1" opacity="1" d="M 58.5 206 L 59.5 208 L 58.5 206 Z " /><path fill="rgb(143,174,194)" stroke="rgb(143,174,194)" stroke-width="1" opacity="1" d="M 199.5 207 L 195.5 212 L 199.5 207 Z " /></svg>