<svg xmlns="http://www.w3.org/2000/svg" viewBox="-60 -961 1480 1320"><path d="M80 120L80 40L200 40L200 120ZM280 120L280 40L400 40L400 120ZM520 120L520 40L640 40L640 120ZM80 -40L80 -560L400 -560L400 -40ZM720 120L720 40L840 40L840 120ZM80 -640L80 -720L200 -720L200 -640ZM960 120L960 40L1080 40L1080 120ZM520 -40L520 -560L840 -560L840 -40ZM280 -640L280 -720L400 -720L400 -640ZM1160 120L1160 40L1280 40L1280 120ZM520 -640L520 -720L640 -720L640 -640ZM960 -40L960 -560L1280 -560L1280 -40ZM720 -640L720 -720L840 -720L840 -640ZM960 -640L960 -720L1080 -720L1080 -640ZM1160 -640L1160 -720L1280 -720L1280 -640ZM1360 -800L0 -800L0 200L1360 200Z" fill="#000000" fill-rule="nonzero"/></svg>